<svg height='100px' width='100px'  fill="#44515c" xmlns="http://www.w3.org/2000/svg" xmlns:xlink="http://www.w3.org/1999/xlink" version="1.1" x="0px" y="0px" viewBox="0 0 64 64" style="enable-background:new 0 0 64 64;" xml:space="preserve"><g><path d="M52,24v-1V4c0-1.654-1.346-3-3-3H15c-1.654,0-3,1.346-3,3v19v1v3c0,2.206,1.794,4,4,4h1.936l-0.559,8.938l1.996,0.125   L19.939,31H24v4h-2v2h20v-2h-2v-4h4.061l0.566,9.062l1.996-0.125L46.064,31H48c2.206,0,4-1.794,4-4V24z M14,4c0-0.552,0.448-1,1-1   h34c0.552,0,1,0.448,1,1v19H31.931c-0.365-2.906-2.29-5.331-4.912-6.404C27.622,15.895,28,14.995,28,14v-2c0-2.206-1.794-4-4-4   s-4,1.794-4,4v2c0,0.995,0.378,1.895,0.982,2.596c-2.622,1.073-4.547,3.498-4.912,6.404H14V4z M22,14v-2c0-1.103,0.897-2,2-2   s2,0.897,2,2v2c0,1.103-0.897,2-2,2S22,15.103,22,14z M24,18c2.967,0,5.431,2.167,5.91,5H18.09C18.569,20.167,21.033,18,24,18z    M38,35H26v-4h12V35z M50,27c0,1.103-0.897,2-2,2H16c-1.103,0-2-0.897-2-2v-2h36V27z"></path><path d="M32,15h2v5.081L40.351,15H46c1.103,0,2-0.897,2-2V7c0-1.103-0.897-2-2-2H32c-1.103,0-2,0.897-2,2v6   C30,14.103,30.897,15,32,15z M32,7h14v6h-6.351L36,15.919V13h-4V7z"></path><rect x="38" y="9" width="2" height="2"></rect><rect x="34" y="9" width="2" height="2"></rect><rect x="42" y="9" width="2" height="2"></rect><polygon points="45.064,47.062 45.936,61 18.064,61 18.936,47.062 16.939,46.938 15.936,63 48.064,63 47.061,46.938  "></polygon><path d="M9.893,46.747C10.575,46.029,11,45.066,11,44v-2c0-2.206-1.794-4-4-4s-4,1.794-4,4v2c0,1.066,0.425,2.029,1.107,2.747   C2.256,47.77,1,49.74,1,52v4h12v-4C13,49.74,11.744,47.77,9.893,46.747z M5,44v-2c0-1.103,0.897-2,2-2s2,0.897,2,2v2   c0,1.103-0.897,2-2,2S5,45.103,5,44z M11,54H3v-2c0-2.206,1.794-4,4-4s4,1.794,4,4V54z"></path><path d="M59.893,46.747C60.575,46.029,61,45.066,61,44v-2c0-2.206-1.794-4-4-4s-4,1.794-4,4v2c0,1.066,0.425,2.029,1.107,2.747   C52.256,47.77,51,49.74,51,52v4h12v-4C63,49.74,61.744,47.77,59.893,46.747z M55,44v-2c0-1.103,0.897-2,2-2s2,0.897,2,2v2   c0,1.103-0.897,2-2,2S55,45.103,55,44z M61,54h-8v-2c0-2.206,1.794-4,4-4s4,1.794,4,4V54z"></path><path d="M21,52v2h8v-2h-2v-5c0-2.206-1.794-4-4-4h-2v2h2c1.103,0,2,0.897,2,2v5H21z"></path><path d="M41,45h2v-2h-2c-2.206,0-4,1.794-4,4v5h-2v2h8v-2h-4v-5C39,45.897,39.897,45,41,45z"></path><rect x="17" y="43" width="2" height="2"></rect><rect x="45" y="43" width="2" height="2"></rect></g></svg>