<svg height='100px' width='100px'  fill="#44515c" xmlns="http://www.w3.org/2000/svg" xmlns:xlink="http://www.w3.org/1999/xlink" version="1.1" x="0px" y="0px" viewBox="0 0 66 66" enable-background="new 0 0 66 66" xml:space="preserve"><g><g><path d="M60.1,3.6H5.9C3.2,3.6,1,5.8,1,8.5v35.9c0,2.5,2,4.7,4.5,4.8c0.5,0-1,0,19.7,0v5.4h-6.3c-2.2,0-3.9,1.8-3.9,3.9    c0,2.2,1.8,3.9,3.9,3.9h28.2c2.2,0,3.9-1.8,3.9-3.9c0-2.2-1.8-3.9-3.9-3.9h-6.2v-5.4h19.3c2.7,0,4.9-2.2,4.9-4.9V8.5    C65,5.8,62.8,3.6,60.1,3.6z M5.9,5.6h54.3c1.6,0,2.9,1.3,2.9,2.9v32.1H24.2L24,32.9c0-0.7,0.2-1.3,0.7-1.8    c0.5-0.5,1.1-0.7,1.8-0.7c1.4,0,2.9-0.5,4-1.3l8.5-6.5c0.4-0.3,0.5-0.9,0.2-1.4l-0.5-0.7l9.2-6.1c0.5-0.3,0.6-0.9,0.3-1.4    c-0.1-0.2-0.3-0.3-0.5-0.4h10.4c0.6,0,1-0.4,1-1c0-0.6-0.4-1-1-1h-27c-0.6,0-1,0.4-1,1c0,0.6,0.4,1,1,1h15.9c-0.1,0-0.1,0-0.2,0.1    l-9.3,6.2l-0.5-0.7c-0.3-0.4-0.9-0.6-1.4-0.3L25,24.6h-7.2c-0.4,0-0.8,0.3-0.9,0.7l-1.3,3.6h-0.4l-1.3-3.6    c-0.1-0.4-0.5-0.7-0.9-0.7c-3.4,0-6.1,2.7-6.1,6.1v9.9H3V8.5C3,6.9,4.3,5.6,5.9,5.6z M12.2,36.4c-0.6,0-1,0.4-1,1v3.2H8.9v-9.9    c0-2,1.5-3.7,3.4-4l1.3,3.6c0.1,0.4,0.5,0.7,0.9,0.7h1.9c0.4,0,0.8-0.3,0.9-0.7l1.3-3.6h6.8c0.2,0,0.4-0.1,0.5-0.2L36,20    c0.1,0.1,1.1,1.6,1,1.5l-7.8,5.9c-0.8,0.6-1.8,0.9-2.8,0.9c-1.2,0-2.3,0.5-3.2,1.3c-0.9,0.9-1.3,2-1.3,3.3l0.2,7.7h-9.1v-3.2    C13.2,36.8,12.7,36.4,12.2,36.4z M49,58.5c0,1.1-0.9,1.9-1.9,1.9H18.9c-1.1,0-1.9-0.9-1.9-1.9s0.9-1.9,1.9-1.9h28.2    C48.2,56.6,49,57.4,49,58.5z M38.9,54.6H27.1v-5.4h11.7V54.6z M60.1,47.2c-57.1,0-54.1,0-54.5,0C4.2,47.1,3,45.8,3,44.3v-1.7    c6.8,0,53.9,0,60,0v1.7C63,45.9,61.7,47.2,60.1,47.2z"></path></g><g><path d="M58.1,17.1H45.4c-0.6,0-1,0.4-1,1c0,0.6,0.4,1,1,1h12.7c0.6,0,1-0.4,1-1C59.1,17.5,58.7,17.1,58.1,17.1z"></path></g><g><path d="M58.1,23.6H40.5c-0.6,0-1,0.4-1,1c0,0.6,0.4,1,1,1h17.7c0.6,0,1-0.4,1-1C59.1,24,58.7,23.6,58.1,23.6z"></path></g><g><path d="M58.1,30H32.7c-0.6,0-1,0.4-1,1s0.4,1,1,1h25.4c0.6,0,1-0.4,1-1S58.7,30,58.1,30z"></path></g><g><path d="M15.5,22.8c2.9,0,5.2-2.3,5.2-5.2c0-2.9-2.3-5.2-5.2-5.2c-2.9,0-5.2,2.3-5.2,5.2C10.3,20.4,12.6,22.8,15.5,22.8z     M15.5,14.3c1.8,0,3.2,1.4,3.2,3.2c0,1.8-1.4,3.2-3.2,3.2c-1.8,0-3.2-1.4-3.2-3.2C12.3,15.8,13.7,14.3,15.5,14.3z"></path></g></g></svg>