<svg height='100px' width='100px'  fill="#00abbe" xmlns="http://www.w3.org/2000/svg" xmlns:xlink="http://www.w3.org/1999/xlink" viewBox="0 0 60 60" version="1.1" x="0px" y="0px"><title>65 -Selfie Stick- (Outline)</title><desc>Created with Sketch.</desc><g stroke="none" stroke-width="1" fill="none" fill-rule="evenodd"><g transform="translate(-599.000000, -1043.000000)" fill="#00abbe"><g transform="translate(599.000000, 1043.000000)"><path d="M3.9614,3 C2.8794,3 2.0004,3.88 2.0004,4.962 L2.0004,27.038 C2.0004,28.12 2.8794,29 3.9614,29 L56.0384,29 C57.1204,29 58.0004,28.12 58.0004,27.038 L58.0004,4.962 C58.0004,3.88 57.1204,3 56.0384,3 L3.9614,3 Z M56.0384,31 L3.9614,31 C1.7764,31 0.0004,29.223 0.0004,27.038 L0.0004,4.962 C0.0004,2.777 1.7764,1 3.9614,1 L56.0384,1 C58.2224,1 60.0004,2.777 60.0004,4.962 L60.0004,27.038 C60.0004,29.223 58.2224,31 56.0384,31 L56.0384,31 Z"></path><path d="M8,29 L50,29 L50,3 L8,3 L8,29 Z M6,31 L52,31 L52,1 L6,1 L6,31 Z"></path><path d="M4,18 C3.448,18 3,17.553 3,17 L3,12 C3,11.447 3.448,11 4,11 C4.552,11 5,11.447 5,12 L5,17 C5,17.553 4.552,18 4,18"></path><path d="M4,22 C3.448,22 3,21.553 3,21 L3,20 C3,19.447 3.448,19 4,19 C4.552,19 5,19.447 5,20 L5,21 C5,21.553 4.552,22 4,22"></path><path d="M11,32 L10,32 C9.448,32 9,31.553 9,31 C9,30.447 9.448,30 10,30 L11,30 C11.552,30 12,30.447 12,31 C12,31.553 11.552,32 11,32"></path><path d="M14,2 L13,2 C12.448,2 12,1.553 12,1 C12,0.447 12.448,0 13,0 L14,0 C14.552,0 15,0.447 15,1 C15,1.553 14.552,2 14,2"></path><path d="M16,32 L15,32 C14.448,32 14,31.553 14,31 C14,30.447 14.448,30 15,30 L16,30 C16.552,30 17,30.447 17,31 C17,31.553 16.552,32 16,32"></path><path d="M55,14 C53.897,14 53,14.897 53,16 C53,17.103 53.897,18 55,18 C56.103,18 57,17.103 57,16 C57,14.897 56.103,14 55,14 M55,20 C52.794,20 51,18.206 51,16 C51,13.794 52.794,12 55,12 C57.206,12 59,13.794 59,16 C59,18.206 57.206,20 55,20"></path><path d="M23,31 L23,32 C23,32.552 23.449,33 24,33 L36,33 C36.551,33 37,32.552 37,32 L37,31 L23,31 Z M36,35 L24,35 C22.346,35 21,33.654 21,32 L21,30 C21,29.447 21.448,29 22,29 L38,29 C38.552,29 39,29.447 39,30 L39,32 C39,33.654 37.654,35 36,35 L36,35 Z"></path><path d="M28.9053,35 L26.9953,54.135 C27.0003,55.844 27.5203,58 30.0003,58 C32.4793,58 33.0003,55.844 33.0003,54.035 L31.0953,35 L28.9053,35 Z M30.0003,60 C26.9163,60 25.0003,57.715 25.0003,54.035 L27.0053,33.9 C27.0563,33.39 27.4863,33 28.0003,33 L32.0003,33 C32.5133,33 32.9443,33.39 32.9953,33.9 L34.9953,53.936 C35.0003,57.715 33.0843,60 30.0003,60 L30.0003,60 Z"></path><path d="M33.0981,46 L26.9021,46 C26.3491,46 25.9021,45.553 25.9021,45 C25.9021,44.447 26.3491,44 26.9021,44 L33.0981,44 C33.6501,44 34.0981,44.447 34.0981,45 C34.0981,45.553 33.6501,46 33.0981,46"></path><path d="M33.6968,52 L26.3028,52 C25.7508,52 25.3028,51.553 25.3028,51 C25.3028,50.447 25.7508,50 26.3028,50 L33.6968,50 C34.2488,50 34.6968,50.447 34.6968,51 C34.6968,51.553 34.2488,52 33.6968,52"></path><path d="M11,10 C10.448,10 10,9.553 10,9 L10,6 C10,5.447 10.448,5 11,5 L14,5 C14.552,5 15,5.447 15,6 C15,6.553 14.552,7 14,7 L12,7 L12,9 C12,9.553 11.552,10 11,10"></path><path d="M14,27 L11,27 C10.448,27 10,26.553 10,26 L10,23 C10,22.447 10.448,22 11,22 C11.552,22 12,22.447 12,23 L12,25 L14,25 C14.552,25 15,25.447 15,26 C15,26.553 14.552,27 14,27"></path><path d="M47,27 L44,27 C43.448,27 43,26.553 43,26 C43,25.447 43.448,25 44,25 L46,25 L46,23 C46,22.447 46.448,22 47,22 C47.553,22 48,22.447 48,23 L48,26 C48,26.553 47.553,27 47,27"></path><path d="M47,10 C46.448,10 46,9.553 46,9 L46,7 L44,7 C43.448,7 43,6.553 43,6 C43,5.447 43.448,5 44,5 L47,5 C47.553,5 48,5.447 48,6 L48,9 C48,9.553 47.553,10 47,10"></path><path d="M29,8 C28.448,8 28,7.553 28,7 L28,5 C28,4.447 28.448,4 29,4 C29.552,4 30,4.447 30,5 L30,7 C30,7.553 29.552,8 29,8"></path><path d="M29,28 C28.448,28 28,27.553 28,27 L28,25 C28,24.447 28.448,24 29,24 C29.552,24 30,24.447 30,25 L30,27 C30,27.553 29.552,28 29,28"></path><path d="M48,17 L46,17 C45.448,17 45,16.553 45,16 C45,15.447 45.448,15 46,15 L48,15 C48.553,15 49,15.447 49,16 C49,16.553 48.553,17 48,17"></path><path d="M12,17 L10,17 C9.448,17 9,16.553 9,16 C9,15.447 9.448,15 10,15 L12,15 C12.552,15 13,15.447 13,16 C13,16.553 12.552,17 12,17"></path><path d="M30.2471,18.5322 C30.2471,18.5332 30.2461,18.5332 30.2461,18.5342 C30.2461,18.5332 30.2471,18.5332 30.2471,18.5322 M23.9991,23.0002 C23.5751,23.0002 23.1821,22.7282 23.0471,22.3022 C22.8801,21.7752 23.1711,21.2142 23.6981,21.0472 L25.9151,20.3442 C25.9661,20.3042 25.9991,20.2612 26.0071,20.2422 L26.0021,19.5532 C25.7061,19.1702 25.2401,18.4712 24.9571,17.5762 C24.5451,17.3122 24.0001,16.8792 24.0001,16.1712 L24.0001,14.9632 C24.0001,14.3852 24.3831,14.0122 24.7021,13.7762 L24.7021,12.6002 C24.6711,12.2682 24.6491,11.2202 25.4361,10.3052 C26.1821,9.4392 27.3811,9.0002 29.0001,9.0002 C30.6171,9.0002 31.8201,9.4372 32.5781,10.3012 C33.3821,11.2182 33.3701,12.2732 33.3451,12.5932 L33.3451,13.7942 C33.6461,14.0332 34.0001,14.4042 34.0001,14.9632 L34.0001,16.1712 C34.0001,16.9282 33.4261,17.4742 32.7971,17.7882 C32.5921,18.3152 32.3331,18.8122 32.0251,19.2712 C32.0191,19.3062 32.0111,19.3452 32.0001,19.3862 L32.0001,20.3222 C32.0001,20.3612 32.0011,20.3932 32.0021,20.4212 L34.2621,21.0352 C34.7951,21.1792 35.1101,21.7292 34.9651,22.2612 C34.8201,22.7952 34.2731,23.1152 33.7381,22.9652 L31.1811,22.2702 C31.1181,22.2542 31.0561,22.2302 30.9971,22.2012 C30.3351,21.8712 30.0001,21.2392 30.0001,20.3222 L30.0001,19.1902 C30.0001,19.0702 30.0211,18.9522 30.0631,18.8412 C30.0841,18.6932 30.1381,18.4782 30.2931,18.2612 C30.6171,17.8032 30.8721,17.2862 31.0531,16.7252 C31.1531,16.4142 31.3991,16.1722 31.7121,16.0762 C31.8121,16.0462 31.9221,15.9892 32.0001,15.9392 L32.0001,15.2842 C31.9871,15.2752 31.9741,15.2662 31.9611,15.2582 C31.8491,15.1782 31.7471,15.1012 31.6741,15.0362 C31.4651,14.8452 31.3451,14.5762 31.3451,14.2942 L31.3451,12.5472 C31.3451,12.5032 31.3481,12.4602 31.3531,12.4162 C31.3531,12.4162 31.3891,11.9642 31.0591,11.6022 C30.6981,11.2082 29.9861,11.0002 29.0001,11.0002 C28.0041,11.0002 27.2961,11.2112 26.9521,11.6102 C26.6531,11.9582 26.6901,12.3942 26.6911,12.3982 C26.6981,12.4472 26.7021,12.4972 26.7021,12.5472 L26.7021,14.2942 C26.7021,14.5772 26.5821,14.8462 26.3721,15.0362 C26.2901,15.1102 26.1691,15.1962 26.0341,15.2872 C26.0231,15.2942 26.0121,15.3022 26.0001,15.3082 L26.0001,15.8682 C26.0671,15.9122 26.1421,15.9572 26.1891,15.9852 L26.3611,16.0922 C26.5801,16.2332 26.7341,16.4542 26.7921,16.7072 C27.0271,17.7312 27.7251,18.5012 27.7311,18.5092 C27.9041,18.6932 28.0001,18.9372 28.0001,19.1902 L28.0001,20.2942 C28.0001,21.0222 27.5351,21.7462 26.8141,22.1372 C26.7581,22.1692 26.6991,22.1932 26.6391,22.2132 L24.3021,22.9532 C24.2021,22.9852 24.1001,23.0002 23.9991,23.0002"></path></g></g></g></svg>