<svg height='100px' width='100px'  fill="#44515c" xmlns="http://www.w3.org/2000/svg" xmlns:xlink="http://www.w3.org/1999/xlink" version="1.1" x="0px" y="0px" viewBox="0 0 67 67" enable-background="new 0 0 67 67" xml:space="preserve"><g><path d="M61.8583984,1.5371094C61.7282104,1.5369873,5.2321167,1.500061,5.1044922,1.5c-1.6542969,0-3,1.3457031-3,3v0.0742188   v42.2558594v2.8564453c0,1.6748047,1.3632574,3.0371094,3.0380859,3.0371094h22.3812866l-6.5951538,7.7734375   C19.2540894,62.4715576,20.6589355,65.5,23.2451172,65.5h20.5107422c2.5870972,0,3.9901733-3.0296631,2.3173828-5.0019531   l-6.5906372-7.7744141h22.3757935c1.6748047,0,3.0371094-1.3623047,3.0371094-3.0371094V4.5742188   C64.8955078,2.8994141,63.5332031,1.5371094,61.8583984,1.5371094z M4.1044922,4.5742188   c0-0.5722656,0.4658203-1.0371094,1.0380859-1.0371094h23.8652344v19.6279297h-2.8837891V23.140625   c0-3.5087891-2.8544922-6.3632813-6.3632813-6.3632813h-6.4091797c-3.5088129,0-6.3632813,2.8544922-6.3632813,6.3632813v0.0244141   H4.1044922V4.5742188z M24.1240234,23.140625L8.9882813,23.1650391V23.140625c0-2.40625,1.9570313-4.3632813,4.3632813-4.3632813   h6.4091797C22.1669922,18.7773438,24.1240234,20.734375,24.1240234,23.140625z M4.1044922,25.1650391   c9.2385254,0,15.7893677,0,24.9033203,0v19.6650391h-2.8837891v-0.0244141c0-3.5078125-2.8544922-6.3623047-6.3632813-6.3623047   h-6.4091797c-3.5088129,0-6.3632813,2.8544922-6.3632813,6.3623047v0.0244141H4.1044922V25.1650391z M24.1240234,44.8056641   L8.9882813,44.8300781v-0.0244141c0-2.4052734,1.9570313-4.3623047,4.3632813-4.3623047h6.4091797   C22.1669922,40.4433594,24.1240234,42.4003906,24.1240234,44.8056641z M44.5478516,61.7910156   C45.1182251,62.4650269,44.6401367,63.5,43.7558594,63.5H23.2451172c-0.8870239,0-1.3613281-1.0376587-0.7910156-1.7099609   l2.9032593-3.421875h16.2888794L44.5478516,61.7910156z M39.9508667,56.3681641H27.0542603l3.0922241-3.6445313h6.7148438   L39.9508667,56.3681641z M62.8955078,49.6865234c0,0.5722656-0.4648438,1.0371094-1.0371094,1.0371094   c-11.7371216,0-46.1698608,0-56.7158203,0c-0.5722656,0-1.0380859-0.4648438-1.0380859-1.0371094v-2.8564453   c21.8910522,0,36.8164673,0,58.7910156,0V49.6865234z M62.8955078,44.8300781c-24.3294067,0-1.2850952,0-31.8876953,0V3.5371094   h30.8505859c0.5722656,0,1.0371094,0.4648438,1.0371094,1.0371094V44.8300781z"></path><path d="M34.2050781,49.5957031c0.3961182-0.394104,0.4014893-1.0184326,0-1.4199219   c-0.3701172-0.3701172-1.0400391-0.3701172-1.4101563,0c-0.3884277,0.3904419-0.3842163,1.0357056,0,1.4199219   C33.1845703,49.9874878,33.8273926,49.9754639,34.2050781,49.5957031z"></path><path d="M16.5556641,16.0966797c2.9091797,0,5.1650391-3.1962891,5.1650391-5.9453125   c0-2.8476563-2.3173828-5.1650391-5.1650391-5.1650391s-5.1640625,2.3173828-5.1640625,5.1650391   C11.3916016,12.9003906,13.6474609,16.0966797,16.5556641,16.0966797z M16.5556641,6.9863281   c1.7451172,0,3.1650391,1.4199219,3.1650391,3.1650391c0,1.7763672-1.4609375,3.9453125-3.1650391,3.9453125   s-3.1640625-2.1689453-3.1640625-3.9453125C13.3916016,8.40625,14.8105469,6.9863281,16.5556641,6.9863281z"></path><path d="M16.5556641,37.7626953c2.9560547,0,5.1650391-3.1396484,5.1650391-5.9462891   c0-2.8476563-2.3173828-5.1640625-5.1650391-5.1640625s-5.1640625,2.3164063-5.1640625,5.1640625   C11.3916016,34.5664063,13.6474609,37.7626953,16.5556641,37.7626953z M16.5556641,28.6523438   c1.7451172,0,3.1650391,1.4189453,3.1650391,3.1640625c0,1.7763672-1.4609375,3.9462891-3.1650391,3.9462891   s-3.1640625-2.1699219-3.1640625-3.9462891C13.3916016,30.0712891,14.8105469,28.6523438,16.5556641,28.6523438z"></path><path d="M46.9511719,18.8261719c3.2763672,0,5.6474609-4.4140625,5.6474609-7.390625   c0-3.1132813-2.5332031-5.6464844-5.6474609-5.6464844c-3.1132813,0-5.6464844,2.5332031-5.6464844,5.6464844   C41.3046875,14.4121094,43.6757813,18.8261719,46.9511719,18.8261719z M46.9511719,7.4355469   c2.2060547,0,4.0009766,1.7949219,4.0009766,4c0,2.4550781-1.9785156,5.7441406-4.0009766,5.7441406s-4-3.2890625-4-5.7441406   C42.9511719,9.2304688,44.7460938,7.4355469,46.9511719,7.4355469z"></path><path d="M56.859375,26.0810547c0-3.6591797-2.9765625-6.6357422-6.6367188-6.6357422h-0.3496094l-2.8974609,3l-2.9492188-3   h-0.3457031c-3.6601563,0-6.6367188,2.9765625-6.6367188,6.6357422v2.4550781H56.859375V26.0810547z M55.2128906,26.8896484   H38.6904297v-0.8085938c0-2.6386719,2.0595703-4.8056641,4.65625-4.9775391l3.6386719,3.7011719l3.5761719-3.7011719   c2.59375,0.1748047,4.6513672,2.3398438,4.6513672,4.9775391V26.8896484z"></path><rect x="35.1572266" y="31.8935547" width="23.5888672" height="2"></rect><polygon points="45.515625,41.2167969 49.4824219,39.1914063 45.515625,37.1806641  "></polygon></g></svg>