<svg height='100px' width='100px'  fill="#000000" xmlns="http://www.w3.org/2000/svg" xmlns:xlink="http://www.w3.org/1999/xlink" version="1.1" x="0px" y="0px" viewBox="0 0 96.001 96" enable-background="new 0 0 96.001 96" xml:space="preserve"><g display="none"><g display="inline" opacity="0.2"><g><path fill="#000000" stroke="#000000" stroke-width="0.5" stroke-miterlimit="10" d="M90.594,84.537     c0,3.331-2.727,6.058-6.057,6.058H11.65c-3.33,0-6.057-2.727-6.057-6.058V11.651c0-3.331,2.727-6.057,6.057-6.057h72.887     c3.33,0,6.057,2.726,6.057,6.057V84.537z"></path><path fill="#000000" stroke="#000000" stroke-width="0.5" stroke-miterlimit="10" d="M20.738,94.594c-3.074,0-5.59-2.564-5.59-5.703     V7.295c0-3.136,2.516-5.701,5.59-5.701h54.541c3.074,0,5.588,2.565,5.588,5.701v81.596c0,3.139-2.514,5.703-5.588,5.703H20.738z"></path><path fill="#000000" stroke="#000000" stroke-width="0.5" stroke-miterlimit="10" d="M7.266,80.885     c-3.176,0-5.773-2.486-5.773-5.529V20.643c0-3.04,2.598-5.528,5.773-5.528h81.449c3.176,0,5.773,2.488,5.773,5.528v54.713     c0,3.043-2.598,5.529-5.773,5.529H7.266z"></path></g><circle fill="#000000" stroke="#000000" stroke-width="0.5" stroke-miterlimit="10" cx="48" cy="48" r="19.363"></circle><circle fill="#000000" stroke="#000000" stroke-width="0.5" stroke-miterlimit="10" cx="48" cy="48" r="46.5"></circle><line fill="#000000" stroke="#000000" stroke-width="0.5" stroke-miterlimit="10" x1="0.008" y1="0.008" x2="95.992" y2="95.993"></line><line fill="#000000" stroke="#000000" stroke-width="0.5" stroke-miterlimit="10" x1="95.992" y1="0.008" x2="0.008" y2="95.993"></line></g></g><g><path d="M89.751,83.626V12.375c0-3.176-2.584-5.761-5.761-5.761H12.011c-3.176,0-5.76,2.584-5.76,5.761v71.252   c0,3.177,2.584,5.761,5.76,5.761H83.99C87.167,89.387,89.751,86.803,89.751,83.626z M38.492,27.146l19.964,9.852l-19.964,9.851   V27.146z M79.894,71.741H65.452v6.304h-1.5v-6.304H15.147v-1.5h48.805v-6.303h1.5v6.303h14.441V71.741z"></path><polygon points="39.992,29.559 39.992,44.435 55.065,36.997  "></polygon></g></svg>