<svg height='100px' width='100px'  fill="#666666" xmlns="http://www.w3.org/2000/svg" xmlns:xlink="http://www.w3.org/1999/xlink" version="1.1" x="0px" y="0px" viewBox="0 0 100 100" style="enable-background:new 0 0 100 100;" xml:space="preserve"><path d="M66,32c0-0.3-0.2-0.6-0.4-0.8l-10-7c-0.3-0.2-0.7-0.2-1-0.1C54.2,24.3,54,24.6,54,25v14c0,0.4,0.2,0.7,0.5,0.9  C54.7,40,54.8,40,55,40c0.2,0,0.4-0.1,0.6-0.2l10-7C65.8,32.6,66,32.3,66,32z M56,37.1V26.9l7.3,5.1L56,37.1z M94,67H59.9l6.4-12  h21.2c0.6,0,1-0.4,1-1V10c0-0.6-0.4-1-1-1h-58c-0.6,0-1,0.4-1,1v44c0,0.6,0.4,1,1,1h21.2l6.4,12H6c-0.6,0-1,0.4-1,1v10v12  c0,0.6,0.4,1,1,1s1-0.4,1-1V79h38v11c0,0.6,0.4,1,1,1s1-0.4,1-1V79h22v11c0,0.6,0.4,1,1,1s1-0.4,1-1V79h22v11c0,0.6,0.4,1,1,1  s1-0.4,1-1V78V68C95,67.4,94.6,67,94,67z M51.3,53H30.5V11h56v42H65.7c-0.4,0-0.7,0.2-0.9,0.5l-6.3,11.8l-6.3-11.8  C52,53.2,51.7,53,51.3,53z M57.8,69l-1.6,8h-4l1.6-8H57.8z M59.8,69h5l-1.6,8h-5L59.8,69z M66.8,69H69v8h-3.8L66.8,69z M7,77v-8h38  v8H7z M47,69h4.8l-1.6,8H47V69z M71,77v-8h22v8H71z"></path></svg>