<svg height='100px' width='100px'  fill="#0080FF" xmlns:dc="http://purl.org/dc/elements/1.1/" xmlns:cc="http://creativecommons.org/ns#" xmlns:rdf="http://www.w3.org/1999/02/22-rdf-syntax-ns#" xmlns:svg="http://www.w3.org/2000/svg" xmlns="http://www.w3.org/2000/svg" xmlns:sodipodi="http://sodipodi.sourceforge.net/DTD/sodipodi-0.dtd" xmlns:inkscape="http://www.inkscape.org/namespaces/inkscape" version="1.1" x="0px" y="0px" viewBox="0 0 100 100"><g transform="translate(0,-952.36218)"><path style="text-indent:0;text-transform:none;direction:ltr;block-progression:tb;baseline-shift:baseline;color:#000000;enable-background:accumulate;" d="M 19.9995,968.36216 C 10.6164,968.36216 3,975.97844 3,985.36145 l 0,21.99905 c 0,9.383 7.6164,16.9993 16.9995,16.9993 l 44.0298,0 c -0.9124,-1.2107 -1.6414,-2.5432 -2.1561,-3.9998 l -41.8737,0 c -7.2364,0 -12.9996,-5.7632 -12.9996,-12.9995 l 0,-21.99905 c 0,-7.23629 5.7632,-12.99945 12.9996,-12.99945 l 45.9986,0 c 7.2363,0 12.9996,5.76316 12.9996,12.99945 l 0,15.31185 c 1.4191,0.2874 2.7569,0.7801 3.9998,1.4374 l 0,-16.74925 c 0,-9.38301 -7.6163,-16.99929 -16.9994,-16.99929 z m 16.062,16.99929 0,22.21785 c 0.1174,1.3825 1.8143,2.3104 2.9374,1.5937 l 17.9682,-10.9996 c 1.2019,-0.7097 1.2019,-2.91514 0,-3.62484 L 38.9989,983.54902 c -1.5184,-0.45543 -2.906,0.42641 -2.9374,1.81243 z m 3.8749,3.56235 12.1246,7.43718 -12.1246,7.43722 z m 36.0613,13.4369 c -7.1557,0 -12.9996,5.8437 -12.9996,12.9995 0,7.1557 5.8439,12.9995 12.9996,12.9995 2.8512,0 5.4769,-0.9312 7.6248,-2.4999 l 9.9059,9.9058 c 0.7956,0.7955 2.0794,0.7955 2.8749,0 0.7956,-0.7954 0.7956,-2.0795 0,-2.8749 l -9.9059,-9.9058 c 1.5688,-2.1479 2.4999,-4.7736 2.4999,-7.6247 0,-7.1558 -5.8438,-12.9995 -12.9996,-12.9995 z m 0,3.9999 c 4.9941,0 8.9998,4.0055 8.9998,8.9996 0,4.994 -4.0057,8.9996 -8.9998,8.9996 -4.9941,0 -8.9997,-4.0056 -8.9997,-8.9996 0,-4.9941 4.0056,-8.9996 8.9997,-8.9996 z" fill="#0080FF" fill-opacity="1" stroke="none" marker="none" visibility="visible" display="inline" overflow="visible"></path></g></svg>