<svg height='100px' width='100px'  fill="#44CC00" xmlns="http://www.w3.org/2000/svg" viewBox="0 0 48 48" x="0px" y="0px"><title>16-Making Money</title><g data-name="16-Making Money"><path d="M47,26a1,1,0,0,0-1,1v7H6a1,1,0,0,0,0,2H46v7a2.852,2.852,0,0,1-3,3H5a3,3,0,0,1-3-3V5A3,3,0,0,1,5,2H37a1,1,0,0,0,0-2H5A5.006,5.006,0,0,0,0,5V43a5.006,5.006,0,0,0,5,5H43a4.821,4.821,0,0,0,5-5V27A1,1,0,0,0,47,26Z"></path><path d="M41,42a1,1,0,0,0,0-2H39a1,1,0,0,0,0,2Z"></path><path d="M22,38a1,1,0,0,0-1,1v1H7a1,1,0,0,0,0,2H21v1a1,1,0,0,0,2,0V42H35a1,1,0,0,0,0-2H23V39A1,1,0,0,0,22,38Z"></path><path d="M20.447,14.105A1,1,0,0,0,19,15v8a1,1,0,0,0,1.447.895l8-4a1,1,0,0,0,0-1.79ZM21,21.382V16.618L25.764,19Z"></path><path d="M44,16a3.97,3.97,0,0,0-2.087.6.977.977,0,0,0-.206-.31l-2.274-2.274a3.878,3.878,0,0,0,0-4.038l2.274-2.274a.977.977,0,0,0,.206-.31A3.99,3.99,0,1,0,40,4a3.97,3.97,0,0,0,.6,2.087.977.977,0,0,0-.31.206L38.019,8.567A3.947,3.947,0,0,0,36,8a4,4,0,0,0,0,8,3.947,3.947,0,0,0,2.019-.567l2.274,2.274a.977.977,0,0,0,.31.206A3.99,3.99,0,1,0,44,16ZM44,2a2,2,0,1,1-2,2A2,2,0,0,1,44,2ZM36,14a2,2,0,1,1,2-2A2,2,0,0,1,36,14Zm8,8a2,2,0,1,1,2-2A2,2,0,0,1,44,22Z"></path></g></svg>