<svg height='100px' width='100px'  fill="#44515c" xmlns="http://www.w3.org/2000/svg" xmlns:xlink="http://www.w3.org/1999/xlink" version="1.1" x="0px" y="0px" viewBox="0 0 100 100" enable-background="new 0 0 100 100" xml:space="preserve"><path d="M54.758,56.148c2.144,0,3.887-1.744,3.887-3.889c0-2.144-1.743-3.888-3.887-3.888c-2.145,0-3.889,1.744-3.889,3.888  c0,0.309,0.045,0.605,0.113,0.893l-8.667,6.316c-0.698-0.666-1.638-1.082-2.677-1.082c-2.143,0-3.887,1.744-3.887,3.889  s1.744,3.887,3.887,3.887c1.039,0,1.979-0.414,2.678-1.082l8.727,6.348c-0.103,0.348-0.175,0.709-0.175,1.09  c0,2.145,1.744,3.889,3.889,3.889c2.144,0,3.887-1.744,3.887-3.889s-1.743-3.889-3.887-3.889c-1.038,0-1.979,0.416-2.676,1.08  l-8.729-6.348c0.102-0.346,0.174-0.705,0.174-1.086s-0.072-0.74-0.174-1.088l8.589-6.26C52.651,55.676,53.647,56.148,54.758,56.148z   M54.758,50.372c1.04,0,1.887,0.847,1.887,1.888s-0.847,1.889-1.887,1.889c-1.041,0-1.889-0.848-1.889-1.889  S53.717,50.372,54.758,50.372z M39.639,64.162c-1.041,0-1.887-0.846-1.887-1.887s0.846-1.889,1.887-1.889  c1.042,0,1.889,0.848,1.889,1.889S40.68,64.162,39.639,64.162z M54.758,70.629c1.04,0,1.887,0.848,1.887,1.889  s-0.847,1.889-1.887,1.889c-1.041,0-1.889-0.848-1.889-1.889S53.717,70.629,54.758,70.629z M79.688,46.158v-0.753  c0-15.432-12.554-27.987-27.985-27.987h-0.224c-13.083,0-24.141,8.7-27.145,21.25c-9.021,1.044-15.983,8.779-15.983,17.93v0.551  c0,9.926,8.077,18.002,18.004,18.002h8.217c0.067,0,0.125-0.025,0.188-0.037c3.719,4.555,9.373,7.469,15.697,7.469  c6.309,0,11.95-2.898,15.67-7.432h11.355c7.811,0,14.165-6.354,14.165-14.164v-0.758C91.758,53.182,86.572,47.171,79.688,46.158z   M65.075,73.223c-0.339,0.129-0.575,0.438-0.621,0.809c-3.354,4-8.381,6.551-13.997,6.551c-10.071,0-18.265-8.193-18.265-18.264  c0-0.76,0.047-1.525,0.14-2.271c1.129-9.117,8.921-15.994,18.125-15.994c2.357,0,4.649,0.441,6.814,1.313  c6.956,2.798,11.451,9.453,11.451,16.953C68.723,66.408,67.354,70.176,65.075,73.223z M89.647,60.986  c0,6.707-5.457,12.164-12.165,12.164h-9.928c1.995-3.137,3.168-6.846,3.168-10.832c0-8.322-4.987-15.705-12.705-18.808  c-2.402-0.967-4.946-1.457-7.561-1.457c-10.211,0-18.856,7.63-20.109,17.748c-0.103,0.828-0.155,1.674-0.155,2.518  c0,3.986,1.173,7.695,3.168,10.832h-7.006c-8.825,0-16.004-7.178-16.004-16.002v-0.551c0-8.359,6.533-15.39,14.873-16.006  c0.443-0.033,0.812-0.354,0.904-0.789C28.677,27.8,39.102,19.417,51.479,19.417h0.224c14.328,0,25.985,11.658,25.985,25.987v1.646  c0,0.521,0.4,0.955,0.92,0.997c6.29,0.505,11.139,5.843,11.04,12.166V60.986z"></path></svg>