<svg height='100px' width='100px'  fill="#1A1A1A" xmlns="http://www.w3.org/2000/svg" xmlns:xlink="http://www.w3.org/1999/xlink" version="1.1" x="0px" y="0px" viewBox="0 0 100.0 100"><path d="M492,332 c21,-21,22,-21,43,0 l343,344 c21,21,22,18,22,63 l0,151 c0,60,0,60,-58,60 l-153,0 c-43,0,-41,-1,-63,-23 l-343,-343 c-21,-21,-21,-20,0,-42 Z M753,743 c-33,0,-60,26,-60,60 c0,32,27,58,60,58 c32,0,59,-26,59,-58 c0,-34,-27,-60,-59,-60 Z M-20,100 c-54,0,-80,26,-80,80 l0,940 c0,54,26,80,80,80 l1240,0 c54,0,80,-26,80,-80 l0,-940 c0,-54,-26,-80,-80,-80 Z M0,200 l100,0 l0,100 l-100,0 Z M0,400 l100,0 l0,100 l-100,0 Z M0,600 l100,0 l0,100 l-100,0 Z M0,800 l100,0 l0,100 l-100,0 Z M0,1000 l100,0 l0,100 l-100,0 Z M1100,200 l100,0 l0,100 l-100,0 Z M1100,400 l100,0 l0,100 l-100,0 Z M1100,600 l100,0 l0,100 l-100,0 Z M1100,800 l100,0 l0,100 l-100,0 Z M1100,1000 l100,0 l0,100 l-100,0 Z M1100,1000 " fill="#1A1A1A" stroke="none" stroke-dasharray="none" stroke-linecap="inherit" stroke-linejoin="inherit" stroke-width="1" transform="matrix(0.05,0.0,0.0,-0.05,20.0,80.0)"></path></svg>