<svg height='100px' width='100px'  fill="#00abbe" xmlns:dc="http://purl.org/dc/elements/1.1/" xmlns:cc="http://creativecommons.org/ns#" xmlns:rdf="http://www.w3.org/1999/02/22-rdf-syntax-ns#" xmlns:svg="http://www.w3.org/2000/svg" xmlns="http://www.w3.org/2000/svg" xmlns:sodipodi="http://sodipodi.sourceforge.net/DTD/sodipodi-0.dtd" xmlns:inkscape="http://www.inkscape.org/namespaces/inkscape" version="1.1" x="0px" y="0px" viewBox="0 0 100 100"><g transform="translate(0,-952.36218)"><path style="font-size:medium;font-style:normal;font-variant:normal;font-weight:normal;font-stretch:normal;text-indent:0;text-align:start;text-decoration:none;line-height:normal;letter-spacing:normal;word-spacing:normal;text-transform:none;direction:ltr;block-progression:tb;writing-mode:lr-tb;text-anchor:start;baseline-shift:baseline;opacity:1;color:#000000;fill:#00abbe;fill-opacity:1;stroke:none;stroke-width:2;marker:none;visibility:visible;display:inline;overflow:visible;enable-background:accumulate;font-family:Sans;-inkscape-font-specification:Sans" d="M 57.8125 16 A 1.0001 1.0001 0 0 0 57 17 L 57 54 L 56.34375 54 C 54.484856 54 53 55.57 53 57.4375 L 53 66 L 51 66 L 51 30 A 1.0001 1.0001 0 0 0 50 29 L 36 29 A 1.0001 1.0001 0 0 0 35.8125 29 A 1.0001 1.0001 0 0 0 35 30 L 35 66 L 29 66 L 29 43 A 1.0001 1.0001 0 0 0 28 42 L 14 42 A 1.0001 1.0001 0 0 0 13.8125 42 A 1.0001 1.0001 0 0 0 13 43 L 13 66 L 8 66 A 1.0001 1.0001 0 0 0 7.8125 66 A 1.0043849 1.0043849 0 0 0 8 68 L 53 68 L 53 80.5625 C 53 82.43 54.484856 84 56.34375 84 L 89.65625 84 C 91.515145 84 93 82.43 93 80.5625 L 93 57.4375 C 93 55.57 91.515145 54 89.65625 54 L 73 54 L 73 17 A 1.0001 1.0001 0 0 0 72 16 L 58 16 A 1.0001 1.0001 0 0 0 57.8125 16 z M 59 18 L 71 18 L 71 54 L 59 54 L 59 18 z M 37 31 L 49 31 L 49 66 L 37 66 L 37 31 z M 15 44 L 27 44 L 27 66 L 15 66 L 15 44 z M 56.34375 56 L 89.65625 56 C 90.404419 56 91 56.6072 91 57.4375 L 91 80.5625 C 91 81.3928 90.404419 82 89.65625 82 L 56.34375 82 C 55.595584 82 55 81.3928 55 80.5625 L 55 57.4375 C 55 56.6072 55.595584 56 56.34375 56 z M 67.84375 61 A 1.0001 1.0001 0 0 0 67 62 L 67 76 A 1.0001 1.0001 0 0 0 68.5 76.84375 L 80.5 69.84375 A 1.0001 1.0001 0 0 0 80.5 68.125 L 68.5 61.125 A 1.0001 1.0001 0 0 0 67.84375 61 z M 69 63.71875 L 78.03125 69 L 69 74.25 L 69 63.71875 z " transform="translate(0,952.36218)"></path></g></svg>