<svg height='100px' width='100px'  fill="#0059B3" xmlns="http://www.w3.org/2000/svg" xmlns:xlink="http://www.w3.org/1999/xlink" version="1.1" x="0px" y="0px" viewBox="0 0 140 140" style="enable-background:new 0 0 140 140;" xml:space="preserve"><g><g><path d="M134,29.75H6c-0.5522461,0-1-0.4472656-1-1V6c0-0.5527344,0.4477539-1,1-1h128c0.5522461,0,1,0.4472656,1,1v22.75    C135,29.3027344,134.5522461,29.75,134,29.75z M7,27.75h126V7H7V27.75z"></path></g><g><path d="M134,135H6c-0.5522461,0-1-0.4472656-1-1V28.75c0-0.5527344,0.4477539-1,1-1h128c0.5522461,0,1,0.4472656,1,1V134    C135,134.5527344,134.5522461,135,134,135z M7,133h126V29.75H7V133z"></path></g><g><g><g><path d="M127.0517578,22.5224609h-8.2944336c-0.5522461,0-1-0.4472656-1-1v-8.2949219c0-0.5527344,0.4477539-1,1-1h8.2944336      c0.5522461,0,1,0.4472656,1,1v8.2949219C128.0517578,22.0751953,127.6040039,22.5224609,127.0517578,22.5224609z       M119.7573242,20.5224609h6.2944336v-6.2949219h-6.2944336V20.5224609z"></path></g><g><path d="M111.8222656,22.5224609h-8.2949219c-0.5522461,0-1-0.4472656-1-1v-8.2949219c0-0.5527344,0.4477539-1,1-1h8.2949219      c0.5522461,0,1,0.4472656,1,1v8.2949219C112.8222656,22.0751953,112.3745117,22.5224609,111.8222656,22.5224609z       M104.5273438,20.5224609h6.2949219v-6.2949219h-6.2949219V20.5224609z"></path></g><g><path d="M96.5922852,22.5224609h-8.2949219c-0.5522461,0-1-0.4472656-1-1v-8.2949219c0-0.5527344,0.4477539-1,1-1h8.2949219      c0.5522461,0,1,0.4472656,1,1v8.2949219C97.5922852,22.0751953,97.1445312,22.5224609,96.5922852,22.5224609z       M89.2973633,20.5224609h6.2949219v-6.2949219h-6.2949219V20.5224609z"></path></g></g><g><path d="M81.1142578,18.375H12.9477539c-0.5522461,0-1-0.4472656-1-1s0.4477539-1,1-1h68.1665039c0.5522461,0,1,0.4472656,1,1     S81.6665039,18.375,81.1142578,18.375z"></path></g></g><g><g><g><path d="M70,110.375c-19.3774414,0-37.5751953-10.0869141-51.2416992-28.4023438      c-0.2651367-0.3544922-0.2651367-0.8408203,0-1.1953125C32.4248047,62.4619141,50.6225586,52.375,70,52.375      s37.5751953,10.0869141,51.2416992,28.4023438c0.2651367,0.3544922,0.2651367,0.8408203,0,1.1953125      C107.5751953,100.2880859,89.3774414,110.375,70,110.375z M20.8110352,81.375      c13.2270508,17.4189453,30.6689453,27,49.1889648,27s35.9619141-9.5810547,49.1889648-27      c-13.2270508-17.4189453-30.6689453-27-49.1889648-27S34.0380859,63.9560547,20.8110352,81.375z"></path></g><g><path d="M70,110.375c-15.9907227,0-29-13.0097656-29-29s13.0092773-29,29-29s29,13.0097656,29,29S85.9907227,110.375,70,110.375      z M70,54.375c-14.8876953,0-27,12.1123047-27,27s12.1123047,27,27,27s27-12.1123047,27-27S84.8876953,54.375,70,54.375z"></path></g><g><path d="M70,98.5439453c-9.4667969,0-17.1689453-7.7021484-17.1689453-17.1689453S60.5332031,64.2060547,70,64.2060547      S87.1689453,71.9082031,87.1689453,81.375S79.4667969,98.5439453,70,98.5439453z M70,66.2060547      c-8.3642578,0-15.1689453,6.8046875-15.1689453,15.1689453S61.6357422,96.5439453,70,96.5439453      S85.1689453,89.7392578,85.1689453,81.375S78.3642578,66.2060547,70,66.2060547z"></path></g></g></g></g></svg>