<svg id="svg" version="1.1" xmlns="http://www.w3.org/2000/svg" xmlns:xlink="http://www.w3.org/1999/xlink" width="400" height="400" viewBox="0, 0, 400,400"><g id="svgg"><path id="path0" d="M325.400 84.573 C 324.520 84.858,318.670 87.115,312.400 89.589 C 306.130 92.062,296.140 95.937,290.200 98.200 C 284.260 100.463,272.920 104.834,265.000 107.914 C 257.080 110.994,247.360 114.724,243.400 116.201 C 239.440 117.679,232.600 120.327,228.200 122.084 C 223.800 123.842,215.970 126.867,210.800 128.806 C 205.630 130.746,197.260 133.951,192.200 135.929 C 181.146 140.251,168.396 145.178,157.000 149.533 C 152.380 151.298,143.110 154.891,136.400 157.516 C 129.690 160.142,123.750 162.426,123.200 162.593 C 122.650 162.759,114.910 165.731,106.000 169.197 C 97.090 172.663,86.110 176.895,81.600 178.602 C 67.707 183.859,65.407 185.697,67.468 189.895 C 68.708 192.423,77.584 196.293,103.000 205.389 C 127.775 214.257,131.263 216.129,134.165 222.120 C 135.649 225.184,142.486 246.388,149.215 268.800 C 159.749 303.883,159.701 303.841,175.076 291.319 C 178.802 288.283,184.170 283.910,187.005 281.600 C 197.869 272.747,199.326 271.648,201.823 270.418 C 209.599 266.590,214.601 267.988,227.850 277.691 C 234.333 282.438,245.869 290.827,269.485 307.970 C 285.937 319.913,286.965 319.589,290.954 301.200 C 294.512 284.801,299.700 259.956,302.356 246.600 C 303.012 243.300,304.358 236.730,305.348 232.000 C 306.337 227.270,308.048 219.080,309.150 213.800 C 310.252 208.520,312.073 199.880,313.196 194.600 C 314.320 189.320,315.779 182.300,316.437 179.000 C 318.183 170.259,319.446 164.065,321.412 154.600 C 322.372 149.980,323.886 142.690,324.777 138.400 C 325.667 134.110,327.019 127.720,327.779 124.200 C 334.587 92.705,335.047 89.584,333.359 86.321 C 332.233 84.143,328.949 83.421,325.400 84.573 M275.781 129.766 C 277.410 130.447,278.000 131.434,278.000 133.480 C 278.000 136.951,275.861 139.465,261.550 152.817 C 255.548 158.418,247.952 165.520,244.670 168.600 C 241.389 171.680,236.341 176.337,233.452 178.949 C 230.563 181.561,226.490 185.341,224.400 187.349 C 222.310 189.358,216.014 195.231,210.409 200.401 C 204.804 205.570,197.424 212.427,194.009 215.638 C 190.594 218.850,185.796 223.297,183.346 225.523 C 174.318 233.723,172.458 237.472,170.811 250.800 C 168.916 266.135,167.125 270.003,161.920 269.999 C 158.027 269.995,155.437 266.807,153.282 259.362 C 142.312 221.474,142.607 222.623,142.604 217.800 C 142.602 214.109,142.703 213.586,143.912 211.032 C 146.683 205.176,145.877 205.731,198.200 173.601 C 212.281 164.954,225.359 156.890,232.000 152.761 C 255.306 138.270,269.045 130.307,271.904 129.633 C 274.042 129.129,274.275 129.137,275.781 129.766 " stroke="none" fill="#f9f9f9" fill-rule="evenodd"></path><path id="path1" d="M0.000 200.000 L 0.000 400.000 200.000 400.000 L 400.000 400.000 400.000 200.000 L 400.000 0.000 200.000 0.000 L 0.000 0.000 0.000 200.000 M335.933 77.801 C 343.843 82.111,343.827 84.334,335.603 123.600 C 334.474 128.990,332.761 137.180,331.796 141.800 C 330.831 146.420,329.232 154.070,328.244 158.800 C 327.256 163.530,325.913 169.830,325.261 172.800 C 324.609 175.770,323.863 179.550,323.604 181.200 C 323.345 182.850,322.438 187.350,321.589 191.200 C 320.739 195.050,319.570 200.540,318.990 203.400 C 316.562 215.377,314.396 225.818,313.016 232.200 C 309.629 247.857,308.721 252.207,307.215 260.000 C 306.343 264.510,304.825 272.070,303.840 276.800 C 302.855 281.530,301.155 289.720,300.061 295.000 C 294.746 320.659,293.173 323.400,283.754 323.400 C 278.546 323.400,277.033 322.658,266.366 314.874 C 255.595 307.015,239.972 295.661,231.400 289.463 C 227.440 286.600,222.220 282.823,219.800 281.071 C 209.967 273.950,207.456 274.226,196.200 283.663 C 192.687 286.608,187.827 290.556,174.328 301.432 C 164.835 309.080,157.423 308.702,151.966 300.290 C 150.455 297.962,148.284 291.690,143.005 274.400 C 132.435 239.788,128.099 226.602,126.542 224.332 C 124.752 221.722,117.108 218.245,99.472 212.021 C 63.700 199.396,58.648 196.451,58.614 188.200 C 58.583 180.747,61.680 178.297,80.075 171.227 C 86.304 168.833,96.080 165.041,101.800 162.800 C 107.520 160.559,115.260 157.589,119.000 156.201 C 122.740 154.812,130.210 151.932,135.600 149.800 C 140.990 147.669,150.080 144.160,155.800 142.002 C 161.520 139.845,169.350 136.831,173.200 135.305 C 177.050 133.778,184.250 130.976,189.200 129.077 C 194.150 127.178,203.870 123.439,210.800 120.769 C 217.730 118.099,227.810 114.222,233.200 112.153 C 238.590 110.085,245.610 107.387,248.800 106.157 C 251.990 104.928,260.900 101.497,268.600 98.534 C 276.300 95.571,291.420 89.705,302.200 85.498 C 328.173 75.363,330.488 74.834,335.933 77.801 M240.133 157.356 C 235.166 159.774,228.606 163.562,218.000 170.139 C 213.050 173.209,205.850 177.644,202.000 179.996 C 191.101 186.654,165.105 202.729,159.748 206.122 C 148.567 213.206,148.285 214.756,154.385 235.600 C 160.071 255.026,161.647 256.656,163.816 245.348 C 166.254 232.643,168.175 229.493,180.444 218.093 C 192.352 207.029,195.948 203.694,204.200 196.062 C 244.904 158.420,250.637 152.244,240.133 157.356 " stroke="none" fill="#040404" fill-rule="evenodd"></path><path id="path2" d="M325.000 81.560 C 323.680 81.946,318.010 84.074,312.400 86.289 C 306.790 88.504,297.880 91.972,292.600 93.996 C 287.320 96.021,276.970 100.017,269.600 102.877 C 262.230 105.737,251.070 110.020,244.800 112.394 C 238.530 114.768,228.720 118.550,223.000 120.798 C 217.280 123.047,208.190 126.560,202.800 128.604 C 197.410 130.649,187.600 134.426,181.000 136.998 C 174.400 139.570,164.590 143.352,159.200 145.402 C 153.810 147.453,144.270 151.143,138.000 153.604 C 131.730 156.064,123.540 159.211,119.800 160.597 C 116.060 161.983,108.590 164.857,103.200 166.985 C 97.810 169.113,88.630 172.661,82.800 174.870 C 67.677 180.601,64.714 182.362,63.629 186.272 C 63.031 188.424,63.075 188.793,64.203 191.056 C 66.032 194.726,67.484 195.437,91.000 204.173 C 126.436 217.336,126.970 217.568,129.627 220.898 C 131.837 223.670,133.397 228.118,142.079 256.400 C 153.893 294.887,155.013 297.998,157.909 300.385 C 161.833 303.620,165.830 302.712,172.878 296.984 C 174.925 295.320,179.570 291.560,183.200 288.629 C 186.830 285.698,192.140 281.377,195.000 279.025 C 207.382 268.846,210.817 269.011,226.600 280.541 C 242.607 292.235,250.366 297.879,258.600 303.817 C 263.220 307.148,269.153 311.448,271.783 313.372 C 280.592 319.815,284.390 320.740,288.300 317.393 C 291.111 314.987,292.060 311.932,296.004 292.600 C 296.857 288.420,298.567 280.230,299.805 274.400 C 301.042 268.570,302.753 260.200,303.606 255.800 C 304.460 251.400,306.261 242.580,307.610 236.200 C 308.958 229.820,310.849 220.820,311.811 216.200 C 312.774 211.580,314.570 203.030,315.803 197.200 C 317.036 191.370,318.926 182.190,320.003 176.800 C 321.935 167.133,323.411 160.010,327.796 139.200 C 337.627 92.546,337.979 90.619,337.275 87.263 C 336.124 81.777,331.538 79.646,325.000 81.560 M331.613 84.607 C 335.598 86.667,335.359 89.134,327.779 124.200 C 327.019 127.720,325.667 134.110,324.777 138.400 C 323.886 142.690,322.372 149.980,321.412 154.600 C 319.446 164.065,318.183 170.259,316.437 179.000 C 315.779 182.300,314.320 189.320,313.196 194.600 C 312.073 199.880,310.252 208.520,309.150 213.800 C 308.048 219.080,306.337 227.270,305.348 232.000 C 304.358 236.730,303.012 243.300,302.356 246.600 C 299.700 259.956,294.512 284.801,290.954 301.200 C 286.965 319.589,285.937 319.913,269.485 307.970 C 245.869 290.827,234.333 282.438,227.850 277.691 C 214.601 267.988,209.599 266.590,201.823 270.418 C 199.326 271.648,197.869 272.747,187.005 281.600 C 157.641 305.528,160.538 306.509,149.215 268.800 C 142.486 246.388,135.649 225.184,134.165 222.120 C 131.263 216.129,127.775 214.257,103.000 205.389 C 77.584 196.293,68.708 192.423,67.468 189.895 C 65.407 185.697,67.707 183.859,81.600 178.602 C 86.110 176.895,97.090 172.663,106.000 169.197 C 114.910 165.731,122.650 162.759,123.200 162.593 C 123.750 162.426,129.690 160.142,136.400 157.516 C 143.110 154.891,152.380 151.298,157.000 149.533 C 168.396 145.178,181.146 140.251,192.200 135.929 C 197.260 133.951,205.630 130.746,210.800 128.806 C 215.970 126.867,223.800 123.842,228.200 122.084 C 232.600 120.327,239.440 117.679,243.400 116.201 C 247.360 114.724,257.080 110.994,265.000 107.914 C 272.920 104.834,284.260 100.463,290.200 98.200 C 296.140 95.937,306.130 92.062,312.400 89.589 C 327.941 83.458,328.907 83.207,331.613 84.607 M271.904 129.633 C 269.045 130.307,255.306 138.270,232.000 152.761 C 225.359 156.890,212.281 164.954,198.200 173.601 C 145.877 205.731,146.683 205.176,143.912 211.032 C 142.703 213.586,142.602 214.109,142.604 217.800 C 142.607 222.623,142.312 221.474,153.282 259.362 C 155.437 266.807,158.027 269.995,161.920 269.999 C 167.125 270.003,168.916 266.135,170.811 250.800 C 172.458 237.472,174.318 233.723,183.346 225.523 C 185.796 223.297,190.594 218.850,194.009 215.638 C 197.424 212.427,204.804 205.570,210.409 200.401 C 216.014 195.231,222.310 189.358,224.400 187.349 C 226.490 185.341,230.563 181.561,233.452 178.949 C 236.341 176.337,241.389 171.680,244.670 168.600 C 247.952 165.520,255.548 158.418,261.550 152.817 C 275.861 139.465,278.000 136.951,278.000 133.480 C 278.000 131.434,277.410 130.447,275.781 129.766 C 274.275 129.137,274.042 129.129,271.904 129.633 M269.992 136.590 C 271.623 138.556,258.124 152.560,230.600 177.456 C 228.400 179.446,224.434 183.127,221.788 185.637 C 219.141 188.147,212.488 194.340,207.004 199.400 C 201.519 204.460,195.133 210.400,192.812 212.600 C 190.491 214.800,186.344 218.643,183.596 221.140 C 171.746 231.910,169.414 236.015,167.998 248.600 C 166.445 262.400,163.547 267.644,159.457 264.053 C 157.568 262.394,155.195 255.170,147.354 227.200 C 143.956 215.081,145.635 210.134,155.311 203.752 C 158.032 201.958,185.417 185.002,200.800 175.587 C 204.650 173.231,211.985 168.715,217.100 165.552 C 247.425 146.797,254.261 142.727,262.200 138.697 C 267.174 136.172,269.192 135.626,269.992 136.590 " stroke="none" fill="#8c8c8c" fill-rule="evenodd"></path><path id="path3" d="M325.588 79.993 C 324.811 80.190,317.521 82.949,309.388 86.124 C 301.255 89.300,291.630 93.031,288.000 94.415 C 284.370 95.799,275.190 99.345,267.600 102.295 C 260.010 105.244,249.120 109.424,243.400 111.582 C 237.680 113.741,228.320 117.348,222.600 119.597 C 216.880 121.846,207.790 125.360,202.400 127.404 C 197.010 129.449,187.200 133.226,180.600 135.798 C 174.000 138.370,164.190 142.152,158.800 144.202 C 153.410 146.251,143.420 150.120,136.600 152.799 C 129.780 155.477,121.590 158.624,118.400 159.791 C 115.210 160.958,108.190 163.654,102.800 165.783 C 97.410 167.912,88.230 171.465,82.400 173.677 C 67.233 179.434,64.591 180.901,62.827 184.544 C 60.514 189.322,63.131 194.394,69.358 197.205 C 72.070 198.429,93.541 206.601,101.255 209.346 C 117.572 215.151,125.088 218.378,127.617 220.663 C 130.320 223.105,130.964 224.854,140.620 256.000 C 153.729 298.279,153.125 296.501,155.426 299.635 C 159.656 305.398,165.438 304.795,174.011 297.696 C 176.095 295.970,181.019 291.958,184.953 288.779 C 188.886 285.601,194.245 281.268,196.860 279.151 C 207.021 270.927,211.029 270.873,222.000 278.812 C 224.530 280.643,229.750 284.415,233.600 287.194 C 240.058 291.856,246.887 296.822,267.600 311.919 C 279.311 320.454,282.717 321.783,287.417 319.648 C 291.652 317.724,292.692 314.944,297.011 294.000 C 297.986 289.270,299.789 280.630,301.017 274.800 C 302.245 268.970,303.945 260.600,304.795 256.200 C 305.645 251.800,306.550 247.300,306.805 246.200 C 307.061 245.100,308.053 240.420,309.010 235.800 C 310.638 227.935,311.719 222.782,316.811 198.600 C 317.923 193.320,319.719 184.590,320.801 179.200 C 322.899 168.751,325.390 156.745,329.017 139.600 C 330.251 133.770,332.042 125.220,332.998 120.600 C 333.954 115.980,335.010 111.030,335.345 109.600 C 337.011 102.494,338.880 90.510,338.692 88.134 C 338.183 81.682,332.599 78.213,325.588 79.993 M333.046 81.565 C 335.197 82.542,336.713 84.584,337.275 87.263 C 337.979 90.619,337.627 92.546,327.796 139.200 C 323.411 160.010,321.935 167.133,320.003 176.800 C 318.926 182.190,317.036 191.370,315.803 197.200 C 314.570 203.030,312.774 211.580,311.811 216.200 C 310.849 220.820,308.958 229.820,307.610 236.200 C 306.261 242.580,304.460 251.400,303.606 255.800 C 302.753 260.200,301.042 268.570,299.805 274.400 C 298.567 280.230,296.857 288.420,296.004 292.600 C 292.060 311.932,291.111 314.987,288.300 317.393 C 284.390 320.740,280.592 319.815,271.783 313.372 C 269.153 311.448,263.220 307.148,258.600 303.817 C 250.366 297.879,242.607 292.235,226.600 280.541 C 210.817 269.011,207.382 268.846,195.000 279.025 C 192.140 281.377,186.830 285.698,183.200 288.629 C 179.570 291.560,174.925 295.320,172.878 296.984 C 165.830 302.712,161.833 303.620,157.909 300.385 C 155.013 297.998,153.893 294.887,142.079 256.400 C 133.397 228.118,131.837 223.670,129.627 220.898 C 126.970 217.568,126.436 217.336,91.000 204.173 C 67.484 195.437,66.032 194.726,64.203 191.056 C 63.075 188.793,63.031 188.424,63.629 186.272 C 64.714 182.362,67.677 180.601,82.800 174.870 C 88.630 172.661,97.810 169.113,103.200 166.985 C 108.590 164.857,116.060 161.983,119.800 160.597 C 123.540 159.211,131.730 156.064,138.000 153.604 C 144.270 151.143,153.810 147.453,159.200 145.402 C 164.590 143.352,174.400 139.570,181.000 136.998 C 187.600 134.426,197.410 130.649,202.800 128.604 C 208.190 126.560,217.280 123.047,223.000 120.798 C 228.720 118.550,238.530 114.768,244.800 112.394 C 251.070 110.020,262.230 105.737,269.600 102.877 C 276.970 100.017,287.320 96.021,292.600 93.996 C 297.880 91.972,306.790 88.504,312.400 86.289 C 327.090 80.490,329.476 79.944,333.046 81.565 M267.000 136.563 C 263.281 137.747,251.991 144.037,236.900 153.332 C 231.125 156.890,222.215 162.388,217.100 165.552 C 211.985 168.715,204.650 173.231,200.800 175.587 C 185.417 185.002,158.032 201.958,155.311 203.752 C 145.635 210.134,143.956 215.081,147.354 227.200 C 155.195 255.170,157.568 262.394,159.457 264.053 C 163.547 267.644,166.445 262.400,167.998 248.600 C 169.414 236.015,171.746 231.910,183.596 221.140 C 186.344 218.643,190.491 214.800,192.812 212.600 C 195.133 210.400,201.519 204.460,207.004 199.400 C 212.488 194.340,219.141 188.147,221.788 185.637 C 224.434 183.127,228.400 179.446,230.600 177.456 C 249.760 160.125,268.174 141.995,269.566 139.090 C 270.926 136.251,270.207 135.542,267.000 136.563 M263.664 142.180 C 263.172 145.005,255.211 153.107,231.218 175.200 C 227.276 178.830,219.404 186.131,213.725 191.425 C 195.234 208.663,187.225 216.109,181.472 221.413 C 170.328 231.686,168.698 234.715,166.632 249.000 C 163.986 267.291,160.508 267.334,155.070 249.143 C 143.602 210.779,143.273 212.598,164.025 199.748 C 181.636 188.843,216.880 167.129,238.600 153.802 C 255.726 143.294,264.151 139.388,263.664 142.180 " stroke="none" fill="#7c7c7c" fill-rule="evenodd"></path><path id="path4" d="M324.400 77.125 C 322.970 77.523,312.980 81.291,302.200 85.498 C 291.420 89.705,276.300 95.571,268.600 98.534 C 260.900 101.497,251.990 104.928,248.800 106.157 C 245.610 107.387,238.590 110.085,233.200 112.153 C 227.810 114.222,217.730 118.099,210.800 120.769 C 203.870 123.439,194.150 127.178,189.200 129.077 C 184.250 130.976,177.050 133.778,173.200 135.305 C 169.350 136.831,161.520 139.845,155.800 142.002 C 150.080 144.160,140.990 147.669,135.600 149.800 C 130.210 151.932,122.740 154.812,119.000 156.201 C 115.260 157.589,107.520 160.559,101.800 162.800 C 96.080 165.041,86.304 168.833,80.075 171.227 C 61.680 178.297,58.583 180.747,58.614 188.200 C 58.648 196.451,63.700 199.396,99.472 212.021 C 117.108 218.245,124.752 221.722,126.542 224.332 C 128.099 226.602,132.435 239.788,143.005 274.400 C 148.284 291.690,150.455 297.962,151.966 300.290 C 157.423 308.702,164.835 309.080,174.328 301.432 C 187.827 290.556,192.687 286.608,196.200 283.663 C 207.456 274.226,209.967 273.950,219.800 281.071 C 222.220 282.823,227.440 286.600,231.400 289.463 C 239.972 295.661,255.595 307.015,266.366 314.874 C 277.033 322.658,278.546 323.400,283.754 323.400 C 293.173 323.400,294.746 320.659,300.061 295.000 C 301.155 289.720,302.855 281.530,303.840 276.800 C 304.825 272.070,306.343 264.510,307.215 260.000 C 308.721 252.207,309.629 247.857,313.016 232.200 C 314.396 225.818,316.562 215.377,318.990 203.400 C 319.570 200.540,320.739 195.050,321.589 191.200 C 322.438 187.350,323.345 182.850,323.604 181.200 C 323.863 179.550,324.609 175.770,325.261 172.800 C 325.913 169.830,327.256 163.530,328.244 158.800 C 329.232 154.070,330.831 146.420,331.796 141.800 C 332.761 137.180,334.474 128.990,335.603 123.600 C 341.061 97.543,342.139 91.415,341.919 87.720 C 341.397 78.976,333.941 74.467,324.400 77.125 M334.915 81.052 C 339.560 84.314,339.664 91.181,335.345 109.600 C 335.010 111.030,333.954 115.980,332.998 120.600 C 332.042 125.220,330.251 133.770,329.017 139.600 C 325.390 156.745,322.899 168.751,320.801 179.200 C 319.719 184.590,317.923 193.320,316.811 198.600 C 311.719 222.782,310.638 227.935,309.010 235.800 C 308.053 240.420,307.061 245.100,306.805 246.200 C 306.550 247.300,305.645 251.800,304.795 256.200 C 303.945 260.600,302.245 268.970,301.017 274.800 C 299.789 280.630,297.986 289.270,297.011 294.000 C 292.692 314.944,291.652 317.724,287.417 319.648 C 282.717 321.783,279.311 320.454,267.600 311.919 C 246.887 296.822,240.058 291.856,233.600 287.194 C 229.750 284.415,224.530 280.643,222.000 278.812 C 211.029 270.873,207.021 270.927,196.860 279.151 C 194.245 281.268,188.886 285.601,184.953 288.779 C 181.019 291.958,176.095 295.970,174.011 297.696 C 165.438 304.795,159.656 305.398,155.426 299.635 C 153.125 296.501,153.729 298.279,140.620 256.000 C 130.964 224.854,130.320 223.105,127.617 220.663 C 125.088 218.378,117.572 215.151,101.255 209.346 C 93.541 206.601,72.070 198.429,69.358 197.205 C 63.131 194.394,60.514 189.322,62.827 184.544 C 64.591 180.901,67.233 179.434,82.400 173.677 C 88.230 171.465,97.410 167.912,102.800 165.783 C 108.190 163.654,115.210 160.958,118.400 159.791 C 121.590 158.624,129.780 155.477,136.600 152.799 C 143.420 150.120,153.410 146.251,158.800 144.202 C 164.190 142.152,174.000 138.370,180.600 135.798 C 187.200 133.226,197.010 129.449,202.400 127.404 C 207.790 125.360,216.880 121.846,222.600 119.597 C 228.320 117.348,237.680 113.741,243.400 111.582 C 249.120 109.424,260.010 105.244,267.600 102.295 C 275.190 99.345,284.370 95.799,288.000 94.415 C 291.630 93.031,301.255 89.300,309.388 86.124 C 328.449 78.683,330.858 78.204,334.915 81.052 M258.400 142.721 C 253.773 144.798,248.100 147.973,238.600 153.802 C 216.880 167.129,181.636 188.843,164.025 199.748 C 143.273 212.598,143.602 210.779,155.070 249.143 C 160.508 267.334,163.986 267.291,166.632 249.000 C 168.698 234.715,170.328 231.686,181.472 221.413 C 187.225 216.109,195.234 208.663,213.725 191.425 C 219.404 186.131,227.276 178.830,231.218 175.200 C 263.874 145.129,270.398 137.334,258.400 142.721 M244.800 156.139 C 244.800 157.919,234.615 167.934,204.200 196.062 C 195.948 203.694,192.352 207.029,180.444 218.093 C 168.175 229.493,166.254 232.643,163.816 245.348 C 161.647 256.656,160.071 255.026,154.385 235.600 C 148.285 214.756,148.567 213.206,159.748 206.122 C 165.105 202.729,191.101 186.654,202.000 179.996 C 205.850 177.644,213.050 173.209,218.000 170.139 C 235.706 159.160,244.800 154.409,244.800 156.139 " stroke="none" fill="#545454" fill-rule="evenodd"></path></g></svg>