<svg id="svg" version="1.1" xmlns="http://www.w3.org/2000/svg" xmlns:xlink="http://www.w3.org/1999/xlink" width="400" height="99.50248756218906" viewBox="0, 0, 400,99.50248756218906"><g id="svgg"><path id="path0" d="M42.333 0.246 C 42.333 0.449,41.908 0.499,39.875 0.537 L 37.417 0.583 37.364 1.042 L 37.311 1.500 35.739 1.521 C 33.309 1.553,33.417 1.531,33.417 2.000 C 33.417 2.391,33.356 2.420,32.452 2.467 C 31.533 2.515,31.484 2.540,31.390 3.008 L 31.292 3.500 29.896 3.500 L 28.500 3.500 28.500 4.000 L 28.500 4.500 27.500 4.500 C 26.504 4.500,26.500 4.502,26.500 4.992 C 26.500 5.473,26.480 5.484,25.542 5.533 C 24.634 5.581,24.581 5.608,24.531 6.042 C 24.486 6.426,24.398 6.500,23.989 6.500 C 23.557 6.500,23.500 6.558,23.500 7.000 L 23.500 7.500 22.500 7.500 L 21.500 7.500 21.500 8.000 C 21.500 8.444,21.444 8.500,21.000 8.500 C 20.556 8.500,20.500 8.556,20.500 9.000 L 20.500 9.500 19.500 9.500 L 18.500 9.500 18.500 10.000 C 18.500 10.444,18.444 10.500,18.000 10.500 C 17.556 10.500,17.500 10.556,17.500 11.000 C 17.500 11.444,17.444 11.500,17.000 11.500 C 16.556 11.500,16.500 11.556,16.500 12.000 C 16.500 12.444,16.444 12.500,16.000 12.500 C 15.556 12.500,15.500 12.556,15.500 13.000 C 15.500 13.444,15.444 13.500,15.000 13.500 C 14.556 13.500,14.500 13.556,14.500 14.000 C 14.500 14.444,14.444 14.500,14.000 14.500 C 13.556 14.500,13.500 14.556,13.500 15.000 C 13.500 15.444,13.444 15.500,13.000 15.500 C 12.556 15.500,12.500 15.556,12.500 16.000 C 12.500 16.444,12.444 16.500,12.000 16.500 C 11.556 16.500,11.500 16.556,11.500 17.000 C 11.500 17.444,11.444 17.500,11.000 17.500 C 10.556 17.500,10.500 17.556,10.500 18.000 C 10.500 18.444,10.444 18.500,10.000 18.500 L 9.500 18.500 9.500 19.500 L 9.500 20.500 9.000 20.500 C 8.556 20.500,8.500 20.556,8.500 21.000 C 8.500 21.444,8.444 21.500,8.000 21.500 C 7.505 21.500,7.500 21.509,7.500 22.417 L 7.500 23.333 15.417 23.333 L 23.333 23.333 23.333 22.833 C 23.333 22.389,23.389 22.333,23.833 22.333 C 24.278 22.333,24.333 22.278,24.333 21.833 C 24.333 21.389,24.389 21.333,24.833 21.333 C 25.278 21.333,25.333 21.278,25.333 20.833 C 25.333 20.389,25.389 20.333,25.833 20.333 C 26.276 20.333,26.333 20.277,26.333 19.842 C 26.333 19.360,26.353 19.349,27.292 19.300 C 28.199 19.253,28.253 19.226,28.303 18.792 C 28.347 18.408,28.435 18.333,28.844 18.333 C 29.277 18.333,29.333 18.275,29.333 17.833 L 29.333 17.333 30.333 17.333 C 31.289 17.333,31.333 17.315,31.333 16.917 C 31.333 16.487,31.645 16.399,32.810 16.496 C 33.057 16.517,33.162 16.461,33.092 16.348 C 33.031 16.248,33.060 16.167,33.157 16.167 C 33.254 16.167,33.333 16.017,33.333 15.833 C 33.333 15.537,33.444 15.500,34.333 15.500 C 34.883 15.500,35.324 15.444,35.314 15.375 C 35.192 14.605,35.315 14.500,36.333 14.500 L 37.333 14.500 37.333 14.000 L 37.333 13.500 38.875 13.469 C 39.723 13.453,40.604 13.450,40.833 13.464 C 41.157 13.484,41.194 13.454,41.000 13.331 C 40.862 13.243,40.835 13.171,40.939 13.169 C 41.043 13.168,41.167 13.017,41.215 12.833 C 41.297 12.519,41.442 12.500,43.734 12.500 C 45.231 12.500,46.175 12.436,46.188 12.333 C 46.199 12.242,46.227 12.092,46.250 12.000 C 46.273 11.908,46.301 11.758,46.313 11.667 C 46.326 11.562,47.625 11.500,49.833 11.500 L 53.333 11.500 53.333 12.000 L 53.333 12.500 55.917 12.500 C 57.624 12.500,58.500 12.560,58.500 12.677 C 58.500 12.774,58.556 12.820,58.625 12.781 C 58.694 12.741,58.900 12.769,59.083 12.842 C 59.387 12.965,59.379 12.978,59.000 12.995 C 57.927 13.042,59.759 13.500,61.019 13.500 L 62.333 13.500 62.333 14.000 C 62.333 14.495,62.343 14.500,63.250 14.500 C 64.012 14.500,64.341 14.642,64.125 14.879 C 63.962 15.059,64.685 15.445,65.240 15.475 C 66.094 15.521,66.500 15.643,66.500 15.854 C 66.500 15.945,66.426 15.974,66.335 15.918 C 66.243 15.861,66.212 15.924,66.265 16.062 C 66.317 16.197,66.470 16.350,66.605 16.402 C 66.761 16.462,66.808 16.427,66.733 16.306 C 66.652 16.175,66.689 16.162,66.849 16.263 C 67.118 16.434,67.188 16.451,67.732 16.479 C 68.009 16.494,68.162 16.627,68.235 16.917 C 68.331 17.298,68.418 17.333,69.253 17.333 C 70.153 17.333,70.167 17.341,70.167 17.823 C 70.167 18.253,70.232 18.319,70.708 18.364 C 71.185 18.410,71.246 18.472,71.219 18.875 C 71.188 19.327,71.201 19.333,72.177 19.333 C 73.166 19.333,73.167 19.334,73.167 19.833 C 73.167 20.278,73.222 20.333,73.667 20.333 C 74.111 20.333,74.167 20.389,74.167 20.833 C 74.167 21.278,74.222 21.333,74.667 21.333 C 75.111 21.333,75.167 21.389,75.167 21.833 C 75.167 22.278,75.222 22.333,75.667 22.333 C 76.111 22.333,76.167 22.389,76.167 22.833 C 76.167 23.278,76.222 23.333,76.667 23.333 C 77.111 23.333,77.167 23.389,77.167 23.833 C 77.167 24.278,77.222 24.333,77.667 24.333 C 78.111 24.333,78.167 24.389,78.167 24.833 C 78.167 25.278,78.222 25.333,78.667 25.333 C 79.111 25.333,79.167 25.389,79.167 25.833 C 79.167 26.276,79.223 26.333,79.658 26.333 C 80.140 26.333,80.151 26.353,80.200 27.292 C 80.232 27.906,80.325 28.257,80.458 28.271 C 80.573 28.282,80.779 28.301,80.917 28.313 C 81.079 28.326,81.167 28.509,81.167 28.833 C 81.167 29.278,81.222 29.333,81.667 29.333 L 82.167 29.333 82.167 30.333 L 82.167 31.333 82.667 31.333 C 83.111 31.333,83.167 31.389,83.167 31.833 C 83.167 32.278,83.222 32.333,83.667 32.333 L 84.167 32.333 84.186 33.625 C 84.197 34.335,84.194 35.010,84.179 35.125 C 84.163 35.252,84.350 35.333,84.659 35.333 L 85.167 35.333 85.167 36.333 L 85.167 37.333 85.667 37.333 L 86.167 37.333 86.167 38.833 L 86.167 40.333 86.667 40.333 L 87.167 40.333 87.167 41.833 L 87.167 43.333 62.353 43.333 L 37.538 43.333 37.273 43.738 C 37.076 44.039,37.060 44.160,37.213 44.215 C 37.379 44.275,33.828 44.395,32.802 44.364 C 32.624 44.359,32.482 44.534,32.414 44.845 C 32.310 45.318,32.276 45.333,31.320 45.333 C 30.335 45.333,30.333 45.334,30.333 45.833 C 30.333 46.278,30.278 46.333,29.833 46.333 C 29.389 46.333,29.333 46.389,29.333 46.833 C 29.333 47.256,29.269 47.333,28.917 47.333 C 28.565 47.333,28.500 47.411,28.500 47.833 C 28.500 48.278,28.444 48.333,28.000 48.333 L 27.500 48.333 27.500 49.333 C 27.500 50.352,27.395 50.475,26.625 50.353 C 26.556 50.342,26.500 53.896,26.500 58.250 L 26.500 66.167 27.000 66.167 L 27.500 66.167 27.500 67.167 L 27.500 68.167 28.000 68.167 C 28.444 68.167,28.500 68.222,28.500 68.667 C 28.500 69.089,28.565 69.167,28.917 69.167 C 29.269 69.167,29.333 69.244,29.333 69.667 C 29.333 70.109,29.390 70.167,29.822 70.167 C 30.232 70.167,30.320 70.241,30.364 70.625 C 30.414 71.058,30.469 71.086,31.365 71.133 C 32.256 71.180,32.316 71.209,32.365 71.633 L 32.417 72.083 34.060 72.131 C 35.655 72.178,35.701 72.190,35.633 72.548 C 35.535 73.057,34.813 73.025,48.208 73.104 L 60.167 73.175 60.167 72.671 L 60.167 72.167 62.167 72.167 L 64.167 72.167 64.167 71.667 L 64.167 71.167 65.167 71.167 L 66.167 71.167 66.167 70.667 L 66.167 70.167 67.167 70.167 L 68.167 70.167 68.167 69.667 C 68.167 69.222,68.222 69.167,68.667 69.167 C 69.111 69.167,69.167 69.111,69.167 68.667 C 69.167 68.222,69.222 68.167,69.667 68.167 L 70.167 68.167 70.167 67.167 L 70.167 66.167 70.667 66.167 L 71.167 66.167 71.167 65.167 C 71.167 64.142,71.231 64.060,71.958 64.154 C 72.120 64.175,72.167 63.283,72.167 60.174 C 72.167 56.365,72.182 56.167,72.480 56.167 C 72.652 56.167,72.895 56.040,73.021 55.885 C 73.216 55.645,73.215 55.624,73.016 55.744 C 72.850 55.844,72.820 55.824,72.912 55.674 C 72.984 55.558,73.028 54.722,73.012 53.815 L 72.981 52.167 86.490 52.167 L 100.000 52.167 99.997 46.958 C 99.995 41.599,99.951 41.220,99.350 41.377 C 99.007 41.467,99.000 41.425,99.000 39.139 C 99.000 36.910,98.874 36.297,98.423 36.327 C 98.374 36.331,98.258 36.333,98.167 36.333 C 98.068 36.333,98.000 35.722,98.000 34.833 L 98.000 33.333 97.500 33.333 L 97.000 33.333 97.000 31.852 C 97.000 30.774,96.943 30.372,96.792 30.378 C 96.043 30.406,96.000 30.354,96.000 29.417 C 96.000 28.509,95.995 28.500,95.500 28.500 L 95.000 28.500 95.000 27.500 L 95.000 26.500 94.500 26.500 L 94.000 26.500 94.000 25.500 L 94.000 24.500 93.500 24.500 C 93.056 24.500,93.000 24.444,93.000 24.000 C 93.000 23.556,92.944 23.500,92.500 23.500 L 92.000 23.500 92.000 22.500 L 92.000 21.500 91.500 21.500 C 91.056 21.500,91.000 21.444,91.000 21.000 C 91.000 20.556,90.944 20.500,90.500 20.500 L 90.000 20.500 90.000 19.500 L 90.000 18.500 89.500 18.500 C 89.056 18.500,89.000 18.444,89.000 18.000 C 89.000 17.556,88.944 17.500,88.500 17.500 C 88.056 17.500,88.000 17.444,88.000 17.000 C 88.000 16.556,87.944 16.500,87.500 16.500 C 87.056 16.500,87.000 16.444,87.000 16.000 C 87.000 15.556,86.944 15.500,86.500 15.500 C 86.056 15.500,86.000 15.444,86.000 15.000 C 86.000 14.556,85.944 14.500,85.500 14.500 C 85.056 14.500,85.000 14.444,85.000 14.000 C 85.000 13.556,84.944 13.500,84.500 13.500 C 84.056 13.500,84.000 13.444,84.000 13.000 C 84.000 12.578,83.935 12.500,83.583 12.500 C 83.231 12.500,83.167 12.422,83.167 12.000 C 83.167 11.556,83.111 11.500,82.667 11.500 C 82.222 11.500,82.167 11.444,82.167 11.000 C 82.167 10.556,82.111 10.500,81.667 10.500 C 81.222 10.500,81.167 10.444,81.167 10.000 L 81.167 9.500 80.167 9.500 L 79.167 9.500 79.167 9.000 C 79.167 8.558,79.110 8.500,78.678 8.500 C 78.268 8.500,78.180 8.426,78.136 8.042 C 78.086 7.608,78.031 7.581,77.135 7.534 C 76.244 7.487,76.184 7.457,76.135 7.034 C 76.095 6.685,75.982 6.572,75.635 6.532 C 75.289 6.492,75.175 6.378,75.135 6.032 C 75.086 5.611,75.026 5.580,74.135 5.534 C 73.244 5.487,73.184 5.457,73.135 5.034 C 73.086 4.610,73.027 4.580,72.135 4.534 C 71.244 4.487,71.184 4.457,71.135 4.034 C 71.087 3.611,71.022 3.578,70.083 3.500 C 69.292 3.434,69.083 3.358,69.081 3.137 C 69.077 2.641,68.740 2.533,67.125 2.512 C 66.174 2.500,66.167 2.496,66.167 2.000 L 66.167 1.500 64.167 1.500 L 62.167 1.500 62.167 1.000 L 62.167 0.500 59.667 0.500 C 57.556 0.500,57.167 0.461,57.167 0.250 C 57.167 0.032,56.231 0.000,49.750 0.000 C 43.328 0.000,42.333 0.033,42.333 0.246 M4.500 27.499 L 4.500 28.500 4.000 28.500 L 3.500 28.500 3.500 29.896 L 3.500 31.292 3.000 31.392 C 2.517 31.488,2.500 31.523,2.500 32.412 C 2.500 33.111,2.440 33.338,2.250 33.354 C 1.464 33.420,1.550 33.159,1.521 35.572 L 1.500 37.311 1.042 37.364 L 0.583 37.417 0.537 39.875 C 0.499 41.908,0.449 42.333,0.246 42.333 C 0.033 42.333,0.000 43.328,0.000 49.750 C 0.000 56.231,0.032 57.167,0.250 57.167 C 0.461 57.167,0.500 57.556,0.500 59.667 L 0.500 62.167 1.000 62.167 L 1.500 62.167 1.500 64.167 L 1.500 66.167 2.000 66.167 C 2.495 66.167,2.681 66.887,2.509 68.142 C 2.492 68.266,2.552 68.321,2.644 68.264 C 2.735 68.208,2.858 68.314,2.917 68.500 C 2.976 68.686,3.090 68.798,3.170 68.748 C 3.324 68.652,3.469 69.305,3.541 70.417 C 3.578 71.004,3.637 71.089,4.034 71.135 C 4.457 71.184,4.487 71.244,4.534 72.135 C 4.580 73.027,4.610 73.086,5.034 73.135 C 5.457 73.184,5.487 73.244,5.534 74.135 C 5.580 75.026,5.611 75.086,6.032 75.135 C 6.378 75.175,6.492 75.289,6.532 75.635 C 6.572 75.982,6.685 76.095,7.034 76.135 C 7.457 76.184,7.487 76.244,7.534 77.135 C 7.581 78.031,7.608 78.086,8.042 78.136 C 8.426 78.180,8.500 78.268,8.500 78.678 C 8.500 79.110,8.558 79.167,9.000 79.167 L 9.500 79.167 9.500 80.167 L 9.500 81.167 10.000 81.167 C 10.444 81.167,10.500 81.222,10.500 81.667 C 10.500 82.111,10.556 82.167,11.000 82.167 C 11.422 82.167,11.500 82.231,11.500 82.583 C 11.500 82.935,11.578 83.000,12.000 83.000 C 12.444 83.000,12.500 83.056,12.500 83.500 C 12.500 83.944,12.556 84.000,13.000 84.000 C 13.444 84.000,13.500 84.056,13.500 84.500 C 13.500 84.944,13.556 85.000,14.000 85.000 C 14.444 85.000,14.500 85.056,14.500 85.500 C 14.500 85.944,14.556 86.000,15.000 86.000 C 15.444 86.000,15.500 86.056,15.500 86.500 C 15.500 86.944,15.556 87.000,16.000 87.000 C 16.444 87.000,16.500 87.056,16.500 87.500 C 16.500 87.944,16.556 88.000,17.000 88.000 C 17.444 88.000,17.500 88.056,17.500 88.500 C 17.500 88.944,17.556 89.000,18.000 89.000 C 18.444 89.000,18.500 89.056,18.500 89.500 L 18.500 90.000 19.500 90.000 L 20.500 90.000 20.500 90.500 C 20.500 90.944,20.556 91.000,21.000 91.000 C 21.444 91.000,21.500 91.056,21.500 91.500 L 21.500 92.000 22.500 92.000 L 23.500 92.000 23.500 92.500 C 23.500 92.944,23.556 93.000,24.000 93.000 C 24.444 93.000,24.500 93.056,24.500 93.500 L 24.500 94.000 25.500 94.000 L 26.500 94.000 26.500 94.500 L 26.500 95.000 27.500 95.000 L 28.500 95.000 28.500 95.500 C 28.500 95.991,28.516 96.000,29.356 96.000 C 30.074 96.000,30.280 96.073,30.633 96.454 C 30.996 96.846,31.211 96.918,32.194 96.973 C 33.324 97.037,33.333 97.042,33.333 97.519 L 33.333 98.000 35.333 98.000 L 37.333 98.000 37.333 98.500 L 37.333 99.000 39.500 99.000 C 41.315 99.000,41.667 99.041,41.667 99.250 C 41.667 99.469,42.694 99.500,49.917 99.500 C 57.139 99.500,58.167 99.469,58.167 99.250 C 58.167 99.042,58.501 99.000,60.179 99.000 L 62.192 99.000 62.692 98.500 C 63.173 98.019,63.249 98.000,64.679 98.000 L 66.167 98.000 66.167 97.500 L 66.167 97.000 67.375 96.980 C 68.040 96.969,68.640 96.969,68.708 96.980 C 68.777 96.991,68.833 96.921,68.833 96.823 C 68.833 96.726,68.913 96.696,69.011 96.757 C 69.109 96.817,69.175 96.766,69.158 96.642 C 69.078 96.061,69.174 96.000,70.167 96.000 L 71.167 96.000 71.167 95.500 L 71.167 95.000 72.167 95.000 L 73.167 95.000 73.167 94.500 L 73.167 94.000 74.167 94.000 L 75.167 94.000 75.167 93.500 C 75.167 93.056,75.222 93.000,75.667 93.000 C 76.111 93.000,76.167 92.944,76.167 92.500 L 76.167 92.000 77.167 92.000 L 78.167 92.000 78.167 91.500 C 78.167 91.056,78.222 91.000,78.667 91.000 C 78.942 91.000,79.158 90.944,79.147 90.875 C 79.025 90.105,79.148 90.000,80.167 90.000 L 81.167 90.000 81.167 89.500 C 81.167 89.056,81.222 89.000,81.667 89.000 C 82.111 89.000,82.167 88.944,82.167 88.500 C 82.167 88.056,82.222 88.000,82.667 88.000 C 83.111 88.000,83.167 87.944,83.167 87.500 C 83.167 87.078,83.231 87.000,83.583 87.000 C 83.935 87.000,84.000 86.922,84.000 86.500 C 84.000 86.056,84.056 86.000,84.500 86.000 C 84.944 86.000,85.000 85.944,85.000 85.500 C 85.000 85.056,85.056 85.000,85.500 85.000 C 85.944 85.000,86.000 84.944,86.000 84.500 C 86.000 84.056,86.056 84.000,86.500 84.000 C 86.944 84.000,87.000 83.944,87.000 83.500 C 87.000 83.056,87.056 83.000,87.500 83.000 C 87.922 83.000,88.000 82.935,88.000 82.583 C 88.000 82.231,88.078 82.167,88.500 82.167 C 88.944 82.167,89.000 82.111,89.000 81.667 C 89.000 81.222,89.056 81.167,89.500 81.167 L 90.000 81.167 90.000 80.167 L 90.000 79.167 90.500 79.167 C 90.944 79.167,91.000 79.111,91.000 78.667 C 91.000 78.222,91.056 78.167,91.500 78.167 C 91.963 78.167,92.000 78.122,92.000 77.566 C 92.000 77.100,92.056 76.986,92.250 77.060 C 92.388 77.113,92.500 77.084,92.500 76.995 C 92.500 76.906,92.556 76.842,92.625 76.853 C 92.954 76.905,93.058 76.812,92.833 76.667 C 92.667 76.559,92.653 76.504,92.792 76.503 C 92.923 76.501,93.000 76.254,93.000 75.833 C 93.000 75.204,93.028 75.167,93.500 75.167 L 94.000 75.167 94.000 74.167 L 94.000 73.167 94.500 73.167 L 95.000 73.167 95.000 72.167 L 95.000 71.167 95.500 71.167 L 96.000 71.167 96.000 70.167 C 96.000 69.167,96.000 69.167,96.500 69.167 C 96.775 69.167,96.991 69.110,96.980 69.042 C 96.969 68.973,96.969 68.298,96.980 67.542 L 97.000 66.167 97.500 66.167 L 98.000 66.167 98.000 64.667 C 98.000 63.333,98.033 63.167,98.300 63.167 C 98.915 63.167,99.000 62.841,99.000 60.478 L 99.000 58.189 99.458 58.136 L 99.917 58.083 99.917 56.250 L 99.917 54.417 93.583 54.417 L 87.250 54.417 87.204 56.875 L 87.158 59.333 86.662 59.333 L 86.167 59.333 86.167 60.750 L 86.167 62.167 85.667 62.167 C 85.168 62.167,85.167 62.169,85.167 63.146 C 85.167 63.865,85.092 64.187,84.885 64.355 C 84.693 64.510,84.643 64.517,84.728 64.375 C 84.797 64.260,84.774 64.167,84.677 64.167 C 84.579 64.167,84.500 64.279,84.500 64.417 C 84.500 64.554,84.433 64.667,84.352 64.667 C 84.270 64.667,84.207 64.760,84.211 64.875 C 84.280 66.722,84.174 67.167,83.667 67.167 C 83.222 67.167,83.167 67.222,83.167 67.667 C 83.167 68.083,83.100 68.167,82.768 68.167 C 82.295 68.167,82.167 68.437,82.167 69.430 C 82.167 70.137,82.147 70.167,81.667 70.167 C 81.241 70.167,81.167 70.230,81.167 70.595 C 81.167 71.001,80.792 71.570,80.632 71.409 C 80.591 71.368,80.563 71.503,80.570 71.709 C 80.578 71.925,80.495 72.066,80.375 72.042 C 80.260 72.019,80.176 72.056,80.186 72.125 C 80.302 72.857,80.147 73.167,79.667 73.167 C 79.222 73.167,79.167 73.222,79.167 73.667 C 79.167 74.111,79.111 74.167,78.667 74.167 C 78.222 74.167,78.167 74.222,78.167 74.667 C 78.167 75.111,78.111 75.167,77.667 75.167 C 77.222 75.167,77.167 75.222,77.167 75.667 C 77.167 76.111,77.111 76.167,76.667 76.167 C 76.222 76.167,76.167 76.222,76.167 76.667 C 76.167 77.111,76.111 77.167,75.667 77.167 C 75.222 77.167,75.167 77.222,75.167 77.667 C 75.167 78.111,75.111 78.167,74.667 78.167 C 74.222 78.167,74.167 78.222,74.167 78.667 C 74.167 79.111,74.111 79.167,73.667 79.167 C 73.222 79.167,73.167 79.222,73.167 79.667 C 73.167 80.125,73.119 80.167,72.593 80.167 C 72.278 80.167,71.968 80.250,71.906 80.351 C 71.826 80.480,71.751 80.469,71.655 80.314 C 71.479 80.030,71.294 80.217,71.269 80.703 C 71.254 81.005,71.139 81.094,70.708 81.136 C 70.232 81.181,70.167 81.247,70.167 81.677 C 70.167 82.159,69.581 82.326,68.393 82.183 C 68.288 82.171,68.206 82.255,68.211 82.372 C 68.236 83.014,68.148 83.167,67.750 83.167 C 67.521 83.167,67.333 83.246,67.333 83.343 C 67.333 83.440,67.263 83.476,67.177 83.423 C 67.090 83.369,67.053 83.502,67.093 83.722 C 67.164 84.116,66.447 84.254,64.625 84.197 C 64.465 84.192,64.325 84.276,64.314 84.385 C 64.304 84.494,64.285 84.696,64.272 84.833 C 64.256 85.017,63.998 85.097,63.292 85.133 C 62.353 85.182,62.333 85.193,62.333 85.675 L 62.333 86.167 60.833 86.167 L 59.333 86.167 59.333 86.663 L 59.333 87.159 56.375 87.204 L 53.417 87.250 53.364 87.708 L 53.311 88.167 49.822 88.167 C 46.841 88.167,46.330 88.130,46.313 87.917 C 46.301 87.779,46.282 87.573,46.271 87.458 C 46.255 87.304,45.576 87.238,43.625 87.204 L 41.000 87.158 41.000 86.662 C 41.000 86.176,40.728 86.053,40.461 86.417 C 40.385 86.520,40.337 86.504,40.336 86.375 C 40.334 86.224,39.921 86.167,38.833 86.167 L 37.333 86.167 37.333 85.667 L 37.333 85.167 36.333 85.167 L 35.333 85.167 35.333 84.667 L 35.333 84.167 34.333 84.167 C 33.658 84.167,33.325 84.099,33.308 83.958 C 33.294 83.844,33.275 83.638,33.266 83.500 C 33.257 83.363,33.137 83.243,33.000 83.234 C 32.862 83.225,32.431 83.206,32.042 83.192 C 31.371 83.168,31.333 83.140,31.333 82.667 L 31.333 82.167 30.333 82.167 L 29.333 82.167 29.333 81.667 C 29.333 81.222,29.278 81.167,28.833 81.167 C 28.389 81.167,28.333 81.111,28.333 80.667 L 28.333 80.167 27.333 80.167 L 26.333 80.167 26.333 79.667 C 26.333 79.222,26.278 79.167,25.833 79.167 C 25.389 79.167,25.333 79.111,25.333 78.667 C 25.333 78.222,25.278 78.167,24.833 78.167 C 24.389 78.167,24.333 78.111,24.333 77.667 C 24.333 77.222,24.278 77.167,23.833 77.167 C 23.389 77.167,23.333 77.111,23.333 76.667 C 23.333 76.222,23.278 76.167,22.833 76.167 C 22.389 76.167,22.333 76.111,22.333 75.667 C 22.333 75.222,22.278 75.167,21.833 75.167 C 21.389 75.167,21.333 75.111,21.333 74.667 C 21.333 74.222,21.278 74.167,20.833 74.167 C 20.389 74.167,20.333 74.111,20.333 73.667 C 20.333 73.222,20.278 73.167,19.833 73.167 C 19.347 73.167,19.333 73.144,19.333 72.367 C 19.333 71.521,19.127 71.167,18.633 71.167 C 18.411 71.167,18.333 71.037,18.333 70.667 C 18.333 70.222,18.278 70.167,17.833 70.167 L 17.333 70.167 17.333 69.167 C 17.333 68.211,17.315 68.167,16.917 68.167 C 16.493 68.167,16.450 68.031,16.438 66.658 C 16.437 66.516,16.289 66.388,16.110 66.375 C 15.639 66.339,15.542 66.178,15.458 65.289 C 15.375 64.406,15.331 64.328,14.890 64.264 C 14.643 64.229,14.567 64.028,14.500 63.235 C 14.422 62.308,14.390 62.247,13.958 62.197 C 13.481 62.142,13.413 61.717,13.468 59.122 C 13.473 58.869,13.408 58.704,13.324 58.756 C 13.239 58.808,13.215 58.734,13.270 58.592 C 13.344 58.399,13.259 58.333,12.934 58.333 L 12.500 58.333 12.500 55.833 L 12.500 53.333 12.000 53.333 L 11.500 53.333 11.500 49.844 L 11.500 46.355 11.958 46.303 L 12.417 46.250 12.463 43.792 C 12.509 41.315,12.528 41.243,13.125 41.321 C 13.240 41.336,13.343 41.270,13.354 41.174 C 13.366 41.078,13.394 40.925,13.417 40.833 C 13.440 40.742,13.468 39.917,13.479 39.000 L 13.500 37.333 14.000 37.333 C 14.444 37.333,14.500 37.278,14.500 36.833 L 14.500 36.333 35.417 36.333 L 56.333 36.333 56.333 36.833 C 56.333 37.278,56.389 37.333,56.833 37.333 C 57.278 37.333,57.333 37.389,57.333 37.833 C 57.333 38.278,57.389 38.333,57.833 38.333 L 58.333 38.333 58.333 39.822 L 58.333 41.310 65.208 41.280 L 72.083 41.250 72.083 38.424 L 72.083 35.598 71.667 35.501 C 71.293 35.413,71.241 35.302,71.167 34.410 C 71.088 33.474,71.057 33.414,70.625 33.364 C 70.182 33.313,70.167 33.277,70.167 32.322 C 70.167 31.335,70.166 31.333,69.667 31.333 C 69.222 31.333,69.167 31.278,69.167 30.833 C 69.167 30.389,69.111 30.333,68.667 30.333 C 68.222 30.333,68.167 30.278,68.167 29.833 C 68.167 29.389,68.111 29.333,67.667 29.333 C 67.244 29.333,67.167 29.269,67.167 28.917 C 67.167 28.519,67.122 28.500,66.167 28.500 L 65.167 28.500 65.167 28.000 L 65.167 27.500 63.982 27.500 C 63.034 27.500,62.816 27.453,62.887 27.266 C 63.015 26.935,62.823 26.801,62.548 27.030 C 62.419 27.136,62.328 27.154,62.344 27.070 C 62.360 26.986,62.364 26.824,62.353 26.710 C 62.337 26.547,56.288 26.503,33.417 26.501 L 4.500 26.498 4.500 27.499 M59.333 55.250 L 59.333 58.333 58.833 58.333 L 58.333 58.333 58.333 59.833 L 58.333 61.333 57.833 61.333 C 57.411 61.333,57.333 61.398,57.333 61.750 C 57.333 62.138,57.050 62.280,56.458 62.186 C 56.390 62.176,56.342 62.223,56.353 62.292 C 56.364 62.360,56.364 62.585,56.353 62.792 L 56.333 63.167 48.844 63.167 L 41.355 63.167 41.303 62.708 C 41.261 62.348,41.152 62.239,40.792 62.197 L 40.333 62.145 40.333 58.156 C 40.333 55.459,40.391 54.167,40.510 54.167 C 40.607 54.167,40.630 54.073,40.561 53.958 C 40.467 53.802,40.503 53.804,40.703 53.966 C 41.010 54.215,41.135 54.078,41.088 53.542 C 41.060 53.212,41.133 53.167,41.695 53.167 C 42.293 53.167,42.333 53.135,42.333 52.667 L 42.333 52.167 50.833 52.167 L 59.333 52.167 59.333 55.250 " stroke="none" fill="#04acbc" fill-rule="evenodd"></path><path id="path1" d="M254.333 21.000 L 254.333 21.500 252.833 21.500 L 251.333 21.500 251.333 22.000 L 251.333 22.500 249.833 22.500 L 248.333 22.500 248.333 26.407 L 248.333 30.314 245.014 30.365 C 243.188 30.394,241.631 30.479,241.555 30.555 C 241.261 30.849,241.290 37.766,241.586 38.062 C 241.818 38.294,242.328 38.333,245.095 38.333 L 248.333 38.333 248.333 47.750 L 248.333 57.167 248.833 57.167 L 249.333 57.167 249.333 58.167 L 249.333 59.167 249.833 59.167 L 250.333 59.167 250.333 60.167 L 250.333 61.167 250.833 61.167 C 251.278 61.167,251.333 61.222,251.333 61.667 C 251.333 62.111,251.389 62.167,251.833 62.167 C 252.278 62.167,252.333 62.222,252.333 62.667 C 252.333 63.111,252.389 63.167,252.833 63.167 C 253.278 63.167,253.333 63.222,253.333 63.667 L 253.333 64.167 254.833 64.167 L 256.333 64.167 256.333 64.667 L 256.333 65.167 261.250 65.167 L 266.167 65.167 266.167 64.667 C 266.167 64.222,266.222 64.167,266.667 64.167 L 267.167 64.167 267.167 60.250 L 267.167 56.333 263.667 56.333 L 260.167 56.333 260.167 55.833 C 260.167 55.389,260.111 55.333,259.667 55.333 L 259.167 55.333 259.167 53.833 L 259.167 52.333 258.667 52.333 L 258.167 52.333 258.167 45.333 L 258.167 38.333 262.667 38.333 L 267.167 38.333 267.167 34.333 L 267.167 30.333 262.667 30.333 L 258.167 30.333 258.167 25.417 L 258.167 20.500 256.250 20.500 L 254.333 20.500 254.333 21.000 M62.339 26.625 C 62.347 26.801,62.946 27.500,63.089 27.500 C 63.154 27.500,63.124 27.399,63.022 27.276 C 62.920 27.153,62.890 26.999,62.955 26.934 C 63.020 26.869,62.963 26.745,62.829 26.660 C 62.530 26.471,62.331 26.457,62.339 26.625 M133.944 30.444 C 133.883 30.506,133.833 30.727,133.833 30.936 C 133.833 31.283,133.747 31.321,132.875 31.367 C 131.973 31.414,131.914 31.443,131.865 31.865 C 131.825 32.211,131.711 32.325,131.365 32.365 C 131.018 32.405,130.905 32.518,130.865 32.865 C 130.825 33.211,130.711 33.325,130.365 33.365 C 130.016 33.405,129.905 33.518,129.864 33.875 C 129.823 34.235,129.724 34.333,129.406 34.333 C 129.066 34.333,129.000 34.415,129.000 34.833 C 129.000 35.278,128.944 35.333,128.500 35.333 L 128.000 35.333 128.000 36.333 L 128.000 37.333 127.500 37.333 L 127.000 37.333 127.000 38.333 L 127.000 39.333 126.500 39.333 L 126.000 39.333 126.000 40.833 L 126.000 42.333 125.500 42.333 L 125.000 42.333 125.000 47.750 L 125.000 53.167 125.500 53.167 L 126.000 53.167 126.000 54.667 L 126.000 56.167 126.500 56.167 L 127.000 56.167 127.000 57.167 L 127.000 58.167 127.500 58.167 L 128.000 58.167 128.000 59.167 L 128.000 60.167 128.500 60.167 C 128.944 60.167,129.000 60.222,129.000 60.667 C 129.000 61.089,129.065 61.167,129.417 61.167 C 129.769 61.167,129.833 61.244,129.833 61.667 C 129.833 62.111,129.889 62.167,130.333 62.167 C 130.778 62.167,130.833 62.222,130.833 62.667 L 130.833 63.167 131.833 63.167 L 132.833 63.167 132.833 63.667 L 132.833 64.167 133.833 64.167 L 134.833 64.167 134.833 64.667 L 134.833 65.167 139.833 65.167 L 144.833 65.167 144.833 64.667 L 144.833 64.167 145.833 64.167 L 146.833 64.167 146.833 63.667 L 146.833 63.167 147.833 63.167 L 148.833 63.167 148.833 62.667 C 148.833 62.222,148.889 62.167,149.333 62.167 L 149.833 62.167 149.833 61.167 C 149.833 60.218,149.854 60.167,150.239 60.167 C 150.573 60.167,150.658 60.070,150.713 59.625 C 150.750 59.327,150.792 60.452,150.807 62.125 L 150.833 65.167 155.750 65.167 L 160.667 65.167 160.667 47.750 L 160.667 30.333 155.750 30.333 L 150.833 30.333 150.801 33.375 C 150.784 35.048,150.742 35.948,150.710 35.375 C 150.655 34.405,150.623 34.333,150.253 34.333 C 149.943 34.333,149.844 34.232,149.803 33.875 C 149.762 33.518,149.651 33.405,149.302 33.365 C 148.955 33.325,148.842 33.211,148.802 32.865 C 148.757 32.478,148.664 32.410,148.125 32.365 C 147.697 32.330,147.500 32.233,147.500 32.058 C 147.500 31.917,147.350 31.763,147.167 31.715 C 146.983 31.667,146.833 31.562,146.833 31.481 C 146.833 31.400,146.618 31.333,146.354 31.333 C 145.955 31.333,145.858 31.250,145.775 30.833 L 145.675 30.333 139.865 30.333 C 136.670 30.333,134.006 30.383,133.944 30.444 M165.780 30.442 C 165.318 30.904,165.728 33.333,166.268 33.333 L 166.667 33.333 166.667 49.250 L 166.667 65.167 171.667 65.167 L 176.667 65.167 176.667 54.761 L 176.667 44.355 177.125 44.303 C 177.582 44.250,177.584 44.244,177.631 42.802 C 177.679 41.365,177.683 41.354,178.131 41.302 C 178.482 41.262,178.595 41.149,178.635 40.802 C 178.675 40.455,178.789 40.342,179.135 40.302 C 179.482 40.262,179.595 40.148,179.635 39.800 C 179.684 39.376,179.744 39.346,180.635 39.300 C 181.531 39.253,181.586 39.225,181.636 38.792 L 181.689 38.333 184.178 38.333 L 186.667 38.333 186.667 38.833 C 186.667 39.278,186.722 39.333,187.167 39.333 C 187.611 39.333,187.667 39.389,187.667 39.833 C 187.667 40.278,187.722 40.333,188.167 40.333 L 188.667 40.333 188.667 41.833 L 188.667 43.333 189.167 43.333 L 189.667 43.333 189.667 54.250 L 189.667 65.167 194.583 65.167 L 199.500 65.167 199.500 51.750 L 199.500 38.333 199.000 38.333 L 198.500 38.333 198.500 36.833 L 198.500 35.333 198.000 35.333 L 197.500 35.333 197.500 34.333 L 197.500 33.333 197.000 33.333 C 196.556 33.333,196.500 33.278,196.500 32.833 C 196.500 32.389,196.444 32.333,196.000 32.333 C 195.556 32.333,195.500 32.278,195.500 31.833 L 195.500 31.333 194.500 31.333 L 193.500 31.333 193.500 30.833 L 193.500 30.333 187.583 30.333 L 181.667 30.333 181.667 30.833 L 181.667 31.333 180.667 31.333 L 179.667 31.333 179.667 31.833 C 179.667 32.278,179.611 32.333,179.167 32.333 C 178.722 32.333,178.667 32.389,178.667 32.833 C 178.667 33.278,178.611 33.333,178.167 33.333 C 177.722 33.333,177.667 33.389,177.667 33.833 C 177.667 34.555,176.719 34.594,176.636 33.875 C 176.595 33.517,176.485 33.405,176.131 33.365 C 175.683 33.313,175.679 33.302,175.631 31.865 L 175.583 30.417 170.739 30.373 C 168.074 30.348,165.843 30.380,165.780 30.442 M213.500 30.833 L 213.500 31.333 212.500 31.333 L 211.500 31.333 211.500 31.833 L 211.500 32.333 210.500 32.333 L 209.500 32.333 209.500 32.833 C 209.500 33.278,209.444 33.333,209.000 33.333 C 208.558 33.333,208.500 33.390,208.500 33.822 C 208.500 34.232,208.426 34.320,208.042 34.364 C 207.608 34.414,207.581 34.469,207.534 35.365 C 207.487 36.256,207.457 36.316,207.034 36.365 C 206.685 36.405,206.572 36.518,206.532 36.865 C 206.492 37.211,206.378 37.325,206.032 37.365 C 205.588 37.416,205.583 37.431,205.535 38.865 C 205.488 40.302,205.484 40.313,205.035 40.365 L 204.583 40.417 204.536 42.364 L 204.490 44.312 204.036 44.364 L 203.583 44.417 203.538 47.792 L 203.493 51.167 203.997 51.167 L 204.500 51.167 204.500 53.167 L 204.500 55.167 205.000 55.167 L 205.500 55.167 205.500 56.667 L 205.500 58.167 206.000 58.167 C 206.444 58.167,206.500 58.222,206.500 58.667 C 206.500 59.111,206.556 59.167,207.000 59.167 L 207.500 59.167 207.500 60.167 L 207.500 61.167 208.000 61.167 C 208.444 61.167,208.500 61.222,208.500 61.667 L 208.500 62.167 209.500 62.167 L 210.500 62.167 210.500 62.667 C 210.500 63.111,210.556 63.167,211.000 63.167 C 211.444 63.167,211.500 63.222,211.500 63.667 L 211.500 64.167 212.667 64.167 C 213.820 64.167,214.500 64.476,214.500 65.000 C 214.500 65.107,216.083 65.167,218.917 65.167 L 223.333 65.167 223.333 64.673 L 223.333 64.180 224.792 64.131 C 226.245 64.083,226.250 64.082,226.303 63.625 C 226.347 63.241,226.435 63.167,226.844 63.167 C 227.277 63.167,227.333 63.109,227.333 62.667 C 227.333 62.222,227.389 62.167,227.833 62.167 C 228.278 62.167,228.333 62.111,228.333 61.667 C 228.333 61.222,228.389 61.167,228.833 61.167 L 229.333 61.167 229.333 63.167 L 229.333 65.167 234.334 65.167 L 239.335 65.167 239.292 47.792 L 239.250 30.417 234.333 30.417 L 229.417 30.417 229.370 32.375 L 229.323 34.333 228.828 34.333 C 228.389 34.333,228.333 34.277,228.333 33.833 C 228.333 33.389,228.278 33.333,227.833 33.333 C 227.389 33.333,227.333 33.278,227.333 32.833 C 227.333 32.389,227.278 32.333,226.833 32.333 C 226.389 32.333,226.333 32.278,226.333 31.833 L 226.333 31.333 225.333 31.333 L 224.333 31.333 224.333 30.833 L 224.333 30.333 218.917 30.333 L 213.500 30.333 213.500 30.833 M279.167 30.833 L 279.167 31.333 278.167 31.333 L 277.167 31.333 277.167 31.833 L 277.167 32.333 276.167 32.333 C 275.172 32.333,275.167 32.336,275.167 32.822 C 275.167 33.232,275.092 33.320,274.708 33.364 C 274.351 33.405,274.239 33.516,274.198 33.865 C 274.158 34.211,274.045 34.325,273.698 34.365 C 273.352 34.405,273.238 34.518,273.198 34.865 C 273.158 35.211,273.045 35.325,272.698 35.365 C 272.352 35.405,272.238 35.518,272.198 35.865 C 272.158 36.211,272.045 36.325,271.698 36.365 C 271.277 36.414,271.247 36.474,271.200 37.365 C 271.154 38.256,271.124 38.316,270.700 38.365 C 270.277 38.414,270.247 38.473,270.200 39.365 C 270.154 40.256,270.124 40.316,269.700 40.365 L 269.250 40.417 269.203 42.375 L 269.156 44.333 268.661 44.333 L 268.167 44.333 268.167 47.750 L 268.167 51.167 268.667 51.167 L 269.167 51.167 269.167 53.167 L 269.167 55.167 269.667 55.167 L 270.167 55.167 270.167 56.167 L 270.167 57.167 270.667 57.167 L 271.167 57.167 271.167 58.167 L 271.167 59.167 271.667 59.167 C 272.111 59.167,272.167 59.222,272.167 59.667 C 272.167 60.111,272.222 60.167,272.667 60.167 C 273.111 60.167,273.167 60.222,273.167 60.667 C 273.167 61.111,273.222 61.167,273.667 61.167 C 274.111 61.167,274.167 61.222,274.167 61.667 L 274.167 62.167 275.167 62.167 L 276.167 62.167 276.167 62.667 C 276.167 63.109,276.223 63.167,276.656 63.167 C 277.065 63.167,277.153 63.241,277.197 63.625 C 277.250 64.082,277.255 64.083,278.708 64.131 L 280.167 64.180 280.167 64.673 L 280.167 65.167 286.083 65.167 L 292.000 65.167 292.000 64.667 L 292.000 64.167 293.500 64.167 L 295.000 64.167 295.000 63.667 L 295.000 63.167 296.000 63.167 L 297.000 63.167 297.000 62.667 C 297.000 62.222,297.056 62.167,297.500 62.167 C 297.944 62.167,298.000 62.111,298.000 61.667 C 298.000 61.222,298.056 61.167,298.500 61.167 C 298.944 61.167,299.000 61.111,299.000 60.667 C 299.000 60.222,299.056 60.167,299.500 60.167 C 299.944 60.167,300.000 60.111,300.000 59.667 C 300.000 59.222,300.056 59.167,300.500 59.167 C 300.944 59.167,301.000 59.111,301.000 58.667 C 301.000 58.222,301.056 58.167,301.500 58.167 L 302.000 58.167 302.000 57.167 L 302.000 56.167 302.500 56.167 L 303.000 56.167 303.000 54.667 L 303.000 53.167 303.502 53.167 L 304.004 53.167 303.960 47.292 L 303.917 41.417 303.458 41.364 C 303.016 41.313,303.000 41.277,303.000 40.322 C 303.000 39.335,302.999 39.333,302.500 39.333 L 302.000 39.333 302.000 38.333 L 302.000 37.333 301.500 37.333 L 301.000 37.333 301.000 36.333 L 301.000 35.333 300.500 35.333 C 300.056 35.333,300.000 35.278,300.000 34.833 C 300.000 34.389,299.944 34.333,299.500 34.333 C 299.056 34.333,299.000 34.278,299.000 33.833 L 299.000 33.333 298.000 33.333 L 297.000 33.333 297.000 32.833 C 297.000 32.389,296.944 32.333,296.500 32.333 C 296.056 32.333,296.000 32.278,296.000 31.833 L 296.000 31.333 294.500 31.333 L 293.000 31.333 293.000 30.833 L 293.000 30.333 286.083 30.333 L 279.167 30.333 279.167 30.833 M308.111 30.444 C 308.050 30.506,308.000 32.216,308.000 34.244 C 308.000 38.066,308.046 38.333,308.700 38.333 C 308.986 38.333,309.000 38.941,309.000 51.750 L 309.000 65.167 313.917 65.167 L 318.833 65.167 318.833 54.261 L 318.833 43.355 319.292 43.303 C 319.748 43.250,319.750 43.245,319.798 41.792 L 319.846 40.333 320.340 40.333 C 320.777 40.333,320.833 40.276,320.833 39.833 L 320.833 39.333 321.833 39.333 L 322.833 39.333 322.833 38.833 L 322.833 38.333 324.917 38.333 L 327.000 38.333 327.000 38.731 C 327.000 39.174,327.351 39.327,328.375 39.331 L 329.000 39.333 329.000 40.333 C 329.000 41.289,329.019 41.333,329.417 41.333 L 329.833 41.333 329.833 53.250 L 329.833 65.167 334.833 65.167 L 339.833 65.167 339.833 54.761 L 339.833 44.355 340.292 44.303 C 340.748 44.250,340.750 44.244,340.798 42.802 C 340.846 41.365,340.849 41.354,341.298 41.302 C 341.648 41.262,341.762 41.149,341.802 40.802 C 341.842 40.455,341.955 40.342,342.302 40.302 C 342.648 40.262,342.762 40.148,342.802 39.802 C 342.842 39.455,342.955 39.342,343.302 39.302 C 343.651 39.261,343.762 39.149,343.803 38.792 L 343.855 38.333 346.344 38.333 L 348.833 38.333 348.833 38.833 C 348.833 39.278,348.889 39.333,349.333 39.333 C 349.778 39.333,349.833 39.389,349.833 39.833 C 349.833 40.278,349.889 40.333,350.333 40.333 L 350.833 40.333 350.833 52.750 L 350.833 65.167 356.250 65.167 L 361.667 65.167 361.667 52.750 L 361.667 40.333 361.167 40.333 L 360.667 40.333 360.667 38.333 L 360.667 36.333 360.167 36.333 L 359.667 36.333 359.667 35.333 L 359.667 34.333 359.167 34.333 C 358.673 34.333,358.667 34.322,358.667 33.434 C 358.667 32.416,358.572 32.333,357.403 32.333 C 356.696 32.333,356.667 32.313,356.667 31.833 C 356.667 31.389,356.611 31.333,356.167 31.333 C 355.722 31.333,355.667 31.278,355.667 30.833 L 355.667 30.333 350.250 30.333 L 344.833 30.333 344.833 30.833 L 344.833 31.333 343.833 31.333 C 342.837 31.333,342.833 31.335,342.833 31.825 C 342.833 32.307,342.814 32.318,341.875 32.367 C 340.973 32.414,340.914 32.443,340.865 32.865 C 340.825 33.211,340.711 33.325,340.365 33.365 C 340.021 33.405,339.905 33.519,339.866 33.857 C 339.826 34.202,339.708 34.314,339.324 34.370 C 338.369 34.510,337.857 34.338,337.801 33.857 C 337.762 33.516,337.647 33.405,337.292 33.364 C 336.908 33.320,336.833 33.232,336.833 32.822 C 336.833 32.390,336.775 32.333,336.333 32.333 C 335.889 32.333,335.833 32.278,335.833 31.833 L 335.833 31.333 334.833 31.333 L 333.833 31.333 333.833 30.833 L 333.833 30.333 328.417 30.333 L 323.000 30.333 323.000 30.825 C 323.000 31.307,322.980 31.318,322.042 31.367 C 321.134 31.414,321.081 31.441,321.031 31.875 C 320.986 32.259,320.898 32.333,320.489 32.333 C 320.057 32.333,320.000 32.391,320.000 32.833 C 320.000 33.278,319.944 33.333,319.500 33.333 C 319.040 33.333,319.000 33.380,319.000 33.917 C 319.000 34.415,318.944 34.500,318.616 34.500 C 318.351 34.500,318.174 34.643,318.050 34.958 C 317.906 35.321,317.865 34.888,317.851 32.875 L 317.833 30.333 313.028 30.333 C 310.385 30.333,308.172 30.383,308.111 30.444 M362.780 30.442 C 362.718 30.505,362.667 31.181,362.667 31.944 L 362.667 33.333 363.167 33.333 L 363.667 33.333 363.667 34.333 L 363.667 35.333 364.167 35.333 L 364.667 35.333 364.667 36.333 C 364.667 37.330,364.668 37.333,365.160 37.333 L 365.654 37.333 365.702 38.792 C 365.750 40.239,365.754 40.250,366.200 40.302 C 366.624 40.351,366.654 40.410,366.700 41.302 C 366.747 42.194,366.777 42.253,367.200 42.302 C 367.624 42.351,367.654 42.410,367.700 43.302 C 367.747 44.198,367.775 44.253,368.208 44.303 C 368.644 44.353,368.667 44.399,368.667 45.240 C 368.667 46.628,368.815 47.126,369.260 47.238 C 369.604 47.324,369.656 47.448,369.700 48.293 C 369.747 49.199,369.775 49.253,370.208 49.303 C 370.646 49.353,370.667 49.397,370.667 50.261 C 370.667 51.156,370.672 51.167,371.167 51.167 L 371.667 51.167 371.667 52.167 C 371.667 52.867,371.730 53.167,371.880 53.167 C 372.386 53.167,372.667 53.820,372.667 55.002 L 372.667 56.167 373.167 56.167 L 373.667 56.167 373.667 57.167 L 373.667 58.167 374.167 58.167 L 374.667 58.167 374.667 59.167 L 374.667 60.167 375.167 60.167 L 375.667 60.167 375.667 62.656 L 375.667 65.145 375.208 65.197 C 374.826 65.241,374.741 65.340,374.698 65.792 C 374.660 66.187,374.563 66.333,374.339 66.333 C 374.015 66.333,373.667 67.074,373.667 67.764 C 373.667 68.055,373.559 68.157,373.208 68.197 C 372.851 68.238,372.739 68.349,372.698 68.700 C 372.649 69.124,372.590 69.154,371.698 69.200 C 370.806 69.247,370.747 69.277,370.698 69.700 C 370.649 70.124,370.590 70.154,369.698 70.200 C 368.805 70.247,368.747 70.276,368.698 70.703 L 368.646 71.156 366.698 71.203 L 364.750 71.250 364.750 72.667 L 364.750 74.083 365.202 74.135 C 365.651 74.187,365.654 74.198,365.702 75.635 C 365.750 77.072,365.753 77.084,366.202 77.135 C 366.651 77.187,366.654 77.198,366.702 78.635 L 366.750 80.083 368.167 80.083 L 369.583 80.083 369.635 79.631 C 369.687 79.183,369.698 79.179,371.135 79.131 C 372.572 79.084,372.584 79.080,372.635 78.631 C 372.687 78.183,372.698 78.179,374.135 78.131 C 375.571 78.084,375.584 78.080,375.635 77.633 C 375.684 77.209,375.744 77.180,376.635 77.133 C 377.526 77.086,377.586 77.056,377.635 76.635 C 377.675 76.289,377.789 76.175,378.135 76.135 C 378.482 76.095,378.595 75.982,378.635 75.635 C 378.675 75.289,378.789 75.175,379.135 75.135 C 379.482 75.095,379.595 74.982,379.635 74.635 C 379.675 74.289,379.789 74.175,380.135 74.135 C 380.482 74.095,380.595 73.982,380.635 73.635 C 380.675 73.289,380.789 73.175,381.135 73.135 C 381.482 73.095,381.595 72.982,381.635 72.635 C 381.675 72.289,381.789 72.175,382.135 72.135 C 382.484 72.095,382.595 71.982,382.636 71.625 C 382.677 71.265,382.776 71.167,383.094 71.167 C 383.479 71.167,383.500 71.115,383.500 70.167 L 383.500 69.167 384.000 69.167 L 384.500 69.167 384.500 68.167 L 384.500 67.167 385.000 67.167 L 385.500 67.167 385.500 66.167 L 385.500 65.167 386.000 65.167 L 386.500 65.167 386.500 63.667 L 386.500 62.167 387.000 62.167 L 387.500 62.167 387.500 61.167 L 387.500 60.167 388.000 60.167 L 388.500 60.167 388.500 59.167 L 388.500 58.167 389.000 58.167 L 389.500 58.167 389.500 57.167 L 389.500 56.167 390.000 56.167 L 390.500 56.167 390.500 54.667 L 390.500 53.167 391.000 53.167 L 391.500 53.167 391.500 52.167 L 391.500 51.167 392.000 51.167 C 392.495 51.167,392.500 51.157,392.500 50.250 C 392.500 49.343,392.505 49.333,393.000 49.333 L 393.500 49.333 393.500 47.833 L 393.500 46.333 394.000 46.333 L 394.500 46.333 394.500 45.333 L 394.500 44.333 395.000 44.333 L 395.500 44.333 395.500 43.333 L 395.500 42.333 396.000 42.333 L 396.500 42.333 396.500 41.333 L 396.500 40.333 397.000 40.333 L 397.500 40.333 397.500 38.833 L 397.500 37.333 398.000 37.333 L 398.500 37.333 398.500 36.333 L 398.500 35.333 399.000 35.333 L 399.500 35.333 399.500 34.333 C 399.500 33.556,399.556 33.333,399.750 33.333 C 399.954 33.333,400.000 33.056,400.000 31.833 L 400.000 30.333 395.333 30.333 L 390.667 30.333 390.667 30.833 C 390.667 31.278,390.611 31.333,390.167 31.333 L 389.667 31.333 389.667 32.833 L 389.667 34.333 389.167 34.333 L 388.667 34.333 388.667 35.333 L 388.667 36.333 388.167 36.333 L 387.667 36.333 387.667 37.833 L 387.667 39.333 387.167 39.333 L 386.667 39.333 386.667 40.333 L 386.667 41.333 386.167 41.333 L 385.667 41.333 385.667 42.333 L 385.667 43.333 385.167 43.333 L 384.667 43.333 384.667 44.833 L 384.667 46.333 384.167 46.333 L 383.667 46.333 383.667 47.333 L 383.667 48.333 383.167 48.333 L 382.667 48.333 382.667 49.833 L 382.667 51.333 382.167 51.333 C 381.722 51.333,381.667 51.278,381.667 50.833 C 381.667 50.389,381.611 50.333,381.167 50.333 L 380.667 50.333 380.667 48.833 L 380.667 47.333 380.167 47.333 L 379.667 47.333 379.667 46.333 L 379.667 45.333 379.167 45.333 L 378.667 45.333 378.667 43.833 L 378.667 42.333 378.175 42.333 C 377.693 42.333,377.682 42.314,377.633 41.375 C 377.586 40.471,377.558 40.414,377.131 40.365 C 376.683 40.313,376.679 40.302,376.631 38.865 C 376.584 37.429,376.580 37.416,376.133 37.365 C 375.709 37.316,375.680 37.256,375.633 36.365 C 375.586 35.472,375.557 35.414,375.131 35.365 C 374.683 35.313,374.679 35.302,374.631 33.865 C 374.584 32.429,374.580 32.416,374.133 32.365 C 373.709 32.316,373.680 32.256,373.633 31.365 L 373.583 30.417 368.238 30.373 C 365.299 30.349,362.842 30.380,362.780 30.442 M3.346 30.625 C 3.339 30.740,3.252 30.815,3.153 30.792 C 3.054 30.769,2.857 30.920,2.714 31.128 C 2.471 31.483,2.475 31.499,2.769 31.388 C 3.228 31.214,3.539 30.861,3.443 30.624 C 3.377 30.460,3.357 30.460,3.346 30.625 M145.833 38.833 L 145.833 39.333 146.833 39.333 C 147.792 39.333,147.833 39.351,147.833 39.756 C 147.833 40.005,148.038 40.378,148.333 40.667 C 148.702 41.027,148.833 41.310,148.833 41.744 C 148.833 42.288,148.872 42.333,149.333 42.333 L 149.833 42.333 149.833 44.833 L 149.833 47.333 150.375 47.344 C 150.869 47.354,150.884 47.368,150.539 47.506 C 149.955 47.741,149.833 48.330,149.833 50.928 L 149.833 53.333 149.333 53.333 C 148.889 53.333,148.833 53.389,148.833 53.833 C 148.833 54.278,148.778 54.333,148.333 54.333 C 147.889 54.333,147.833 54.389,147.833 54.833 C 147.833 55.278,147.778 55.333,147.333 55.333 C 146.889 55.333,146.833 55.389,146.833 55.833 C 146.833 56.278,146.778 56.333,146.333 56.333 C 145.889 56.333,145.833 56.389,145.833 56.833 L 145.833 57.333 142.833 57.333 L 139.833 57.333 139.833 56.833 L 139.833 56.333 138.833 56.333 L 137.833 56.333 137.833 55.833 C 137.833 55.389,137.778 55.333,137.333 55.333 L 136.833 55.333 136.833 54.333 L 136.833 53.333 136.333 53.333 L 135.833 53.333 135.833 51.833 L 135.833 50.333 135.333 50.333 L 134.833 50.333 134.833 47.833 L 134.833 45.333 135.333 45.333 L 135.833 45.333 135.833 43.833 L 135.833 42.333 136.333 42.333 C 136.833 42.333,136.833 42.332,136.833 41.344 C 136.833 40.389,136.849 40.354,137.292 40.303 C 137.649 40.262,137.761 40.151,137.802 39.800 C 137.851 39.376,137.910 39.346,138.802 39.300 C 139.698 39.253,139.753 39.225,139.803 38.792 L 139.855 38.333 142.844 38.333 L 145.833 38.333 145.833 38.833 M225.142 38.833 C 225.437 39.142,225.788 39.333,226.060 39.333 C 226.438 39.333,226.500 39.404,226.500 39.833 C 226.500 40.278,226.556 40.333,227.000 40.333 C 227.444 40.333,227.500 40.389,227.500 40.833 C 227.500 41.278,227.556 41.333,228.000 41.333 L 228.500 41.333 228.500 42.833 C 228.500 44.322,228.503 44.333,228.917 44.333 L 229.333 44.333 229.333 47.833 L 229.333 51.333 228.917 51.333 C 228.519 51.333,228.500 51.378,228.500 52.333 L 228.500 53.333 228.000 53.333 L 227.500 53.333 227.500 54.333 L 227.500 55.333 227.000 55.333 C 226.556 55.333,226.500 55.389,226.500 55.833 L 226.500 56.333 225.500 56.333 L 224.500 56.333 224.500 56.833 L 224.500 57.333 221.917 57.333 L 219.333 57.333 219.333 56.833 L 219.333 56.333 218.333 56.333 L 217.333 56.333 217.333 55.833 C 217.333 55.411,217.269 55.333,216.917 55.333 C 216.565 55.333,216.500 55.256,216.500 54.833 C 216.500 54.389,216.444 54.333,216.000 54.333 L 215.500 54.333 215.500 53.333 L 215.500 52.333 215.000 52.333 L 214.500 52.333 214.500 47.844 L 214.500 43.355 214.958 43.303 C 215.392 43.253,215.419 43.198,215.466 42.302 C 215.513 41.410,215.543 41.351,215.966 41.302 C 216.318 41.261,216.428 41.149,216.469 40.792 C 216.511 40.432,216.609 40.333,216.928 40.333 C 217.267 40.333,217.333 40.252,217.333 39.833 C 217.333 39.389,217.389 39.333,217.833 39.333 C 218.278 39.333,218.333 39.278,218.333 38.833 L 218.333 38.333 221.499 38.333 L 224.664 38.333 225.142 38.833 M290.167 38.833 C 290.167 39.278,290.222 39.333,290.667 39.333 C 291.111 39.333,291.167 39.389,291.167 39.833 C 291.167 40.278,291.222 40.333,291.667 40.333 C 292.129 40.333,292.167 40.378,292.167 40.928 C 292.167 41.687,292.424 42.167,292.833 42.167 C 293.124 42.167,293.159 42.314,293.202 43.708 L 293.250 45.250 293.708 45.303 L 294.167 45.355 294.167 47.844 L 294.167 50.333 293.667 50.333 L 293.167 50.333 293.167 51.833 L 293.167 53.333 292.667 53.333 L 292.167 53.333 292.167 54.333 L 292.167 55.333 291.667 55.333 C 291.222 55.333,291.167 55.389,291.167 55.833 L 291.167 56.333 290.167 56.333 L 289.167 56.333 289.167 56.833 L 289.167 57.333 286.500 57.333 C 284.287 57.333,283.833 57.292,283.833 57.093 C 283.833 56.750,283.173 56.333,282.630 56.333 C 282.226 56.333,282.167 56.269,282.167 55.833 C 282.167 55.389,282.111 55.333,281.667 55.333 C 281.222 55.333,281.167 55.278,281.167 54.833 C 281.167 54.389,281.111 54.333,280.667 54.333 L 280.167 54.333 280.167 53.333 L 280.167 52.333 279.667 52.333 L 279.167 52.333 279.167 47.844 L 279.167 43.355 279.625 43.303 C 280.058 43.253,280.086 43.198,280.133 42.302 C 280.180 41.410,280.209 41.351,280.633 41.302 C 281.004 41.259,281.092 41.156,281.135 40.719 C 281.174 40.319,281.277 40.174,281.551 40.135 C 281.779 40.103,281.936 39.946,281.969 39.718 C 282.008 39.443,282.152 39.340,282.552 39.301 C 282.992 39.259,283.092 39.171,283.136 38.792 L 283.189 38.333 286.678 38.333 L 290.167 38.333 290.167 38.833 M36.929 43.929 C 36.596 44.261,36.595 44.259,37.042 44.281 C 37.248 44.291,37.320 44.262,37.201 44.217 C 37.036 44.153,37.031 44.080,37.180 43.900 C 37.444 43.582,37.254 43.604,36.929 43.929 M55.506 62.576 C 55.395 62.710,55.356 62.902,55.418 63.003 C 55.528 63.181,55.982 62.752,55.995 62.458 C 56.004 62.250,55.720 62.318,55.506 62.576 M66.492 83.681 C 66.390 83.872,66.349 84.072,66.402 84.124 C 66.541 84.264,67.175 83.649,67.070 83.478 C 66.919 83.234,66.688 83.316,66.492 83.681 M79.167 90.423 C 79.167 90.793,79.207 90.823,79.500 90.667 C 79.683 90.569,79.833 90.378,79.833 90.244 C 79.833 90.110,79.683 90.000,79.500 90.000 C 79.254 90.000,79.167 90.111,79.167 90.423 " stroke="none" fill="#44535c" fill-rule="evenodd"></path><path id="path2" d="M58.375 12.667 C 58.412 12.804,58.662 12.942,58.930 12.973 C 59.463 13.035,59.453 12.900,58.917 12.808 C 58.733 12.776,58.521 12.675,58.446 12.583 C 58.363 12.484,58.335 12.517,58.375 12.667 M73.061 53.750 C 73.061 54.667,73.089 55.020,73.123 54.536 C 73.157 54.052,73.156 53.302,73.122 52.869 C 73.088 52.437,73.060 52.833,73.061 53.750 " stroke="none" fill="#2498c0" fill-rule="evenodd"></path><path id="path3" d="M58.333 13.045 C 58.333 13.184,58.446 13.341,58.583 13.394 C 58.721 13.446,58.833 13.426,58.833 13.349 C 58.833 13.271,58.721 13.114,58.583 13.000 C 58.380 12.831,58.333 12.839,58.333 13.045 M55.866 62.745 C 55.707 63.095,55.717 63.167,55.925 63.167 C 56.236 63.167,56.435 62.702,56.218 62.484 C 56.115 62.382,55.988 62.476,55.866 62.745 " stroke="none" fill="#246490" fill-rule="evenodd"></path><path id="path4" d="" stroke="none" fill="#48645c" fill-rule="evenodd"></path></g></svg>